<svg width="161" height="62" fill="none" xmlns="http://www.w3.org/2000/svg"><path d="M39.652 37.68H0c4.235 9.773 16.359 11.565 24.992 4.84H38.49c-1.932 4.956-5.445 8.4-11.635 11.775l3.816 7.4C69.764 35.48 38.861-10.979 0 2.354l3.816 7.773c21.316-7.33 40.141 9.075 35.836 27.552Z" fill="url(#a)"/><path d="M0 27.86c4.398-10.728 22.13-12.892 27.994 0H0Z" fill="url(#b)"/><path d="M63.514 39.702c-.683 0-1.408-.056-2.175-.17a6.713 6.713 0 0 1-2.175-.81c-.683-.398-1.237-.995-1.664-1.792-.426-.824-.64-1.933-.64-3.326V14.455c0-1.222.171-2.232.512-3.028.37-.824.853-1.464 1.45-1.919a5.371 5.371 0 0 1 2.005-1.023 7.505 7.505 0 0 1 2.217-.342c1.763.029 3.398.072 4.905.128 1.507.029 2.928.071 4.264.128 1.365.029 2.687.071 3.967.128v2.73H63.897c-1.108 0-1.99.298-2.644.895-.654.597-.98 1.55-.98 2.858v7.42l14.03.213v2.602l-14.03.213v7.378c0 1.052.17 1.848.511 2.389.37.54.853.895 1.45 1.066.597.17 1.208.256 1.834.256H76.18v2.729c-1.308.085-2.687.156-4.137.213-1.422.057-2.857.1-4.307.128l-4.223.085Zm24.689-.17c-1.223 0-2.318-.185-3.284-.555-.938-.398-1.678-1.051-2.218-1.961-.54-.939-.81-2.204-.81-3.796V8.143h3.412v24.608c0 1.024.17 1.805.511 2.346.342.511.796.867 1.365 1.066.569.17 1.152.256 1.749.256h11.259v3.113H88.203Zm16.386 0V8.143h3.412v31.389h-3.412Zm17.075 0V11.214h-9.681v-3.07h22.773v3.07h-9.68v28.318h-3.412Zm23.313.17c-.683 0-1.408-.056-2.176-.17a6.725 6.725 0 0 1-2.175-.81c-.682-.398-1.236-.995-1.663-1.792-.426-.824-.639-1.933-.639-3.326V14.455c0-1.222.17-2.232.511-3.028.37-.824.853-1.464 1.45-1.919a5.375 5.375 0 0 1 2.005-1.023 7.501 7.501 0 0 1 2.217-.342c1.763.029 3.398.072 4.905.128 1.507.029 2.928.071 4.265.128 1.364.029 2.686.071 3.966.128v2.73H145.36c-1.108 0-1.99.298-2.644.895-.654.597-.981 1.55-.981 2.858v7.42l14.031.213v2.602l-14.031.213v7.378c0 1.052.171 1.848.512 2.389.37.54.853.895 1.45 1.066a6.64 6.64 0 0 0 1.834.256h12.112v2.729c-1.308.085-2.687.156-4.137.213-1.422.057-2.857.1-4.307.128l-4.222.085ZM56.813 56.163v-7.377c0-.313.045-.576.136-.79.09-.222.213-.395.37-.518a1.31 1.31 0 0 1 .518-.272 2.15 2.15 0 0 1 .604-.086 1443.238 1443.238 0 0 0 2.455.05c.42.008.835.02 1.246.036v.383h-3.64c-.361 0-.649.103-.863.308-.214.198-.32.51-.32.938v2.788l4.317.05v.37l-4.317.036v4.084h-.506Zm11.14 0V47.12h.507v9.043h-.506Zm7.063 0V47.12h.432l5.243 8.155V47.12h.505v9.043h-.431l-5.243-8.155v8.155h-.506Zm11.786 0 3.245-9.043h.678l3.245 9.043h-.543l-1.073-2.973h-3.948l-1.073 2.973h-.53Zm1.728-3.43h3.663L90.38 47.59l-1.85 5.144Zm11.503 3.43V47.12h.431l5.243 8.155V47.12h.506v9.043h-.431l-5.244-8.155v8.155h-.505Zm15.216.074c-.559 0-1.041-.062-1.444-.185a1.968 1.968 0 0 1-.974-.666c-.247-.33-.432-.794-.555-1.395-.115-.608-.173-1.402-.173-2.38 0-.905.058-1.653.173-2.246.123-.6.312-1.065.567-1.394a2.122 2.122 0 0 1 1.012-.715c.411-.14.904-.21 1.48-.21.173 0 .399.012.679.037.288.025.588.058.9.099.321.033.621.078.901.136v.357a8.108 8.108 0 0 0-.605-.074 19.141 19.141 0 0 0-.876-.062 12.994 12.994 0 0 0-.974-.037c-.494 0-.917.058-1.271.173a1.696 1.696 0 0 0-.863.63c-.214.295-.37.71-.469 1.245-.099.535-.148 1.226-.148 2.073 0 .88.049 1.595.148 2.146.099.552.255.975.469 1.271.213.288.489.485.826.592.346.099.765.148 1.258.148.617 0 1.123-.016 1.518-.05.403-.04.732-.081.987-.122v.37c-.272.049-.564.094-.876.135-.304.041-.605.07-.901.087a9.601 9.601 0 0 1-.789.037Zm10.102-.037a3.89 3.89 0 0 1-.617-.05 1.527 1.527 0 0 1-.568-.21 1.158 1.158 0 0 1-.419-.48c-.107-.223-.16-.514-.16-.876v-5.799c0-.312.045-.575.135-.789.091-.222.214-.395.37-.518.157-.132.329-.222.518-.272.198-.057.399-.086.605-.086l1.271.025c.419.008.83.02 1.233.037l1.197.024v.383h-3.627c-.362 0-.654.099-.876.296-.214.197-.321.514-.321.95v2.615l4.318.037v.37l-4.318.05v2.615c0 .362.062.63.185.802a.824.824 0 0 0 .482.333c.205.05.415.074.629.074h3.528v.382c-.387.017-.781.03-1.184.037l-1.197.025-1.184.025Zm9.654-.037V47.12h.505v9.043h-.505Zm6.84 0V47.12h3.454c.263 0 .522.029.777.086.263.058.502.173.716.346.222.173.399.428.53.765.14.329.21.773.21 1.332 0 .535-.062.966-.185 1.295-.124.33-.284.584-.481.765a1.64 1.64 0 0 1-.617.383 2.93 2.93 0 0 1-.617.123l1.949 3.948h-.506l-1.924-3.899a17.8 17.8 0 0 1-.592-.012 22.11 22.11 0 0 0-.765-.012l-.79-.025a50.04 50.04 0 0 1-.653-.025v3.973h-.506Zm.506-4.33h2.899c.238 0 .46-.025.666-.074.214-.058.403-.16.567-.309.165-.156.296-.378.395-.666.099-.288.148-.666.148-1.135 0-.444-.053-.802-.16-1.073-.099-.272-.231-.477-.395-.617a1.261 1.261 0 0 0-.568-.296 2.406 2.406 0 0 0-.653-.086h-2.899v4.256Zm10.599 4.33 3.244-9.043h.679l3.244 9.043h-.543l-1.073-2.973h-3.947l-1.074 2.973h-.53Zm1.727-3.43h3.664l-1.814-5.144-1.85 5.144Z" fill="#fff"/><defs><linearGradient id="a" x1="0" y1="54.302" x2="44.568" y2="54.302" gradientUnits="userSpaceOnUse"><stop stop-color="#A3B43E"/><stop offset="1" stop-color="#D7E872"/></linearGradient><linearGradient id="b" x1="0" y1="26.796" x2="25.6" y2="26.796" gradientUnits="userSpaceOnUse"><stop stop-color="#A3B43E"/><stop offset="1" stop-color="#D7E872"/></linearGradient></defs></svg>