<svg width="257" height="330" fill="none" xmlns="http://www.w3.org/2000/svg"><path d="M57.794 223.14h140.56v92.154c0 6.656-6.994 10.993-12.956 8.033l-53.336-26.481a8.964 8.964 0 0 0-7.976 0L70.75 323.327c-5.962 2.96-12.956-1.377-12.956-8.033V223.14Z" fill="url(#a)"/><path fill-rule="evenodd" clip-rule="evenodd" d="M18.31 103.54a14.117 14.117 0 0 0 3.78-13.223l-4.538-19.36c-1.781-7.6 2.943-15.203 10.546-16.971l14.688-3.417a14.116 14.116 0 0 0 10.447-10.133l3.844-14.506c1.995-7.526 9.706-12.016 17.236-10.035l17.473 4.595a14.115 14.115 0 0 0 13.553-3.651l12.772-12.723c5.508-5.488 14.417-5.488 19.925 0l14.23 14.175a14.116 14.116 0 0 0 13.161 3.749l19.604-4.56c7.585-1.765 15.165 2.945 16.943 10.527l3.423 14.604a14.116 14.116 0 0 0 10.153 10.43l14.578 3.834c7.55 1.986 12.055 9.722 10.055 17.268l-4.567 17.232a14.115 14.115 0 0 0 3.683 13.617l12.658 12.61c5.538 5.517 5.538 14.485 0 20.002l-14.117 14.064a14.116 14.116 0 0 0-3.781 13.222l4.538 19.361c1.781 7.6-2.943 15.203-10.545 16.971l-14.691 3.418a14.116 14.116 0 0 0-10.447 10.133l-3.844 14.504c-1.994 7.526-9.706 12.016-17.236 10.036l-17.471-4.595a14.116 14.116 0 0 0-13.554 3.651l-12.771 12.723c-5.508 5.488-14.417 5.488-19.925 0l-14.23-14.175a14.118 14.118 0 0 0-13.161-3.749l-19.604 4.561c-7.584 1.764-15.165-2.947-16.942-10.528l-3.423-14.603A14.119 14.119 0 0 0 40.6 202.167l-14.58-3.834c-7.55-1.986-12.055-9.723-10.056-17.269l4.567-17.233a14.117 14.117 0 0 0-3.682-13.617L4.192 137.606c-5.538-5.517-5.538-14.485 0-20.002l14.117-14.064Zm109.948 117.412c51.65 0 93.52-41.712 93.52-93.166 0-51.454-41.87-93.165-93.52-93.165s-93.52 41.711-93.52 93.165c0 51.454 41.87 93.166 93.52 93.166Z" fill="url(#b)"/><path d="m59.087 152.401 11.28-29.773H54.149v-5.954h22.27l1.645 2.662-12.248 33.065h-6.729Zm36.431 0v-35.727h14.766c2.323 0 4.26.419 5.809 1.258 1.581.807 2.84 2.001 3.776 3.583.936 1.549 1.598 3.421 1.985 5.615.419 2.195.629 4.664.629 7.407 0 3.938-.452 7.23-1.355 9.876-.904 2.615-2.259 4.6-4.067 5.955-1.807 1.356-4.066 2.033-6.777 2.033H95.518Zm5.955-5.373h8.23c1.646 0 2.953-.484 3.921-1.453 1-.968 1.727-2.388 2.178-4.26.485-1.872.727-4.131.727-6.778 0-2.452-.146-4.486-.436-6.099-.291-1.614-.71-2.889-1.259-3.825-.548-.936-1.258-1.598-2.13-1.985-.839-.387-1.84-.581-3.001-.581h-8.23v24.981Zm26.761 5.373v-35.727h5.954v35.727h-5.954Zm10.396 0 11.618-35.727h7.553l11.619 35.727h-6.246l-2.759-8.472h-12.926l-2.711 8.472h-6.148Zm10.263-13.845h10.07l-5.035-16.751-5.035 16.751Zm35.469 14.136c-.871 0-1.807-.032-2.807-.097a49.662 49.662 0 0 1-3.002-.194c-1-.129-1.953-.242-2.856-.339a30.564 30.564 0 0 1-2.421-.435v-4.696c.904.064 1.953.129 3.147.193 1.226.065 2.501.113 3.824.146 1.324.032 2.599.048 3.825.048 1.291 0 2.437-.113 3.437-.339 1.001-.258 1.775-.694 2.324-1.307.549-.613.823-1.484.823-2.614v-1.694c0-1.259-.355-2.227-1.065-2.905-.71-.678-1.759-1.017-3.147-1.017h-3.34c-3.26 0-5.777-.71-7.552-2.13-1.743-1.42-2.615-3.857-2.615-7.31v-1.84c0-3.453.952-5.938 2.857-7.455 1.936-1.549 4.696-2.324 8.278-2.324 1.226 0 2.485.065 3.776.194 1.323.097 2.582.226 3.776.387s2.211.339 3.05.533v4.695c-1.42-.096-3.05-.193-4.889-.29a94.365 94.365 0 0 0-5.035-.145c-1.227 0-2.308.129-3.244.387-.936.258-1.646.726-2.13 1.404-.484.646-.726 1.614-.726 2.905v1.162c0 1.516.403 2.582 1.21 3.195.839.613 2.033.92 3.583.92h3.727c2.098 0 3.825.387 5.18 1.161 1.356.775 2.356 1.84 3.002 3.196.678 1.323 1.017 2.84 1.017 4.55v2.276c0 2.646-.517 4.679-1.55 6.1-1.032 1.42-2.453 2.388-4.26 2.904-1.807.517-3.873.775-6.197.775Z" fill="#fff"/><path d="M71.379 170.546v-9.016h3.725c.587 0 1.075.106 1.466.318.4.203.717.505.953.904.236.391.403.863.501 1.417.106.554.159 1.177.159 1.869 0 .993-.114 1.824-.342 2.492-.228.66-.57 1.16-1.026 1.502-.456.343-1.026.514-1.71.514h-3.726Zm1.502-1.356h2.077c.415 0 .745-.123.99-.367.252-.244.435-.603.55-1.075.121-.472.182-1.042.182-1.71 0-.619-.036-1.132-.11-1.539-.073-.408-.179-.729-.317-.965a1.167 1.167 0 0 0-.538-.501 1.79 1.79 0 0 0-.757-.147H72.88v6.304Zm12.201 1.417c-.195 0-.415-.021-.66-.061a1.941 1.941 0 0 1-.683-.233c-.22-.13-.4-.321-.538-.574-.138-.252-.208-.598-.208-1.038v-5.204c0-.383.057-.7.171-.953a1.54 1.54 0 0 1 .452-.611c.196-.146.407-.248.636-.305.236-.065.468-.098.696-.098.57 0 1.083.008 1.54.025.455.016.87.032 1.245.048.383.017.737.037 1.063.061v1.259h-3.408c-.277 0-.497.069-.66.207-.155.139-.232.355-.232.648v1.6l3.75.086v1.185l-3.75.085v1.552c0 .244.04.431.122.562.09.13.2.219.33.268.138.049.28.074.427.074h3.42v1.258c-.357.032-.748.061-1.172.085-.423.017-.855.029-1.295.037-.431.016-.847.028-1.246.037Zm17.67 0c-.57 0-1.038-.102-1.404-.306a2.2 2.2 0 0 1-.856-.892c-.203-.39-.35-.871-.439-1.441a13.79 13.79 0 0 1-.123-1.942c0-.742.045-1.397.135-1.967.098-.57.265-1.047.501-1.429.236-.391.562-.685.977-.88.423-.204.965-.305 1.625-.305.374 0 .733.016 1.075.048.342.025.672.066.989.123.318.057.627.122.929.195v1.161a12.502 12.502 0 0 0-.697-.074 27.067 27.067 0 0 0-.953-.061 15.89 15.89 0 0 0-1.087-.036c-.537 0-.949.105-1.234.317-.285.204-.48.542-.586 1.014-.106.472-.159 1.108-.159 1.906 0 .627.029 1.148.086 1.563.057.408.15.733.281.978.138.236.321.403.549.501.237.089.522.134.856.134.358 0 .704-.033 1.038-.098a6.74 6.74 0 0 0 .855-.232v-2.077h-1.82v-1.172c.163-.025.358-.045.586-.061.236-.017.481-.029.733-.037.253-.016.501-.024.745-.024.245 0 .465.004.66.012.204 0 .387.008.55.024v4.997h-1.136l-.208-.623a6.36 6.36 0 0 1-1.038.452c-.44.154-.917.232-1.43.232Zm8.284-.061 2.932-9.016h1.906l2.932 9.016h-1.576l-.696-2.138h-3.262l-.684 2.138h-1.552Zm2.59-3.494h2.541l-1.27-4.227-1.271 4.227Zm9.647 3.494v-9.016h3.665c.334 0 .647.041.94.122.302.074.566.212.794.416.236.203.42.488.55.855.138.358.208.826.208 1.405 0 .447-.045.822-.135 1.123a2.177 2.177 0 0 1-.354.721 1.7 1.7 0 0 1-.501.44 3.864 3.864 0 0 1-.537.244l1.734 3.69h-1.527l-1.563-3.47H125.679a9.694 9.694 0 0 0-.476-.012 8.33 8.33 0 0 0-.428-.012v3.494h-1.502Zm1.502-4.679h1.906c.179 0 .342-.021.489-.061a.998.998 0 0 0 .391-.245c.114-.114.199-.268.256-.464.065-.195.098-.448.098-.757 0-.302-.033-.546-.098-.733a.89.89 0 0 0-.256-.44.934.934 0 0 0-.404-.22 1.757 1.757 0 0 0-.476-.061h-1.906v2.981Zm8.871 4.679 2.931-9.016h1.906l2.932 9.016h-1.576l-.696-2.138h-3.262l-.684 2.138h-1.551Zm2.589-3.494h2.541l-1.27-4.227-1.271 4.227Zm9.745 3.494v-9.016h1.209l4.105 6.438v-6.438h1.514v9.016h-1.209l-4.105-6.438v6.438h-1.514Zm13.722 0v-7.66h-2.59v-1.356h6.682v1.356h-2.578v7.66h-1.514Zm8.491 0v-9.016h1.502v9.016h-1.502Zm5.983 0 2.931-9.016h1.906l2.932 9.016h-1.576l-.696-2.138h-3.262l-.684 2.138h-1.551Zm2.589-3.494h2.541l-1.27-4.227-1.271 4.227Z" fill="#E4E4E4"/><path d="m128.901 79.118 3.048 9.344h9.862l-7.979 5.774 3.048 9.344-7.979-5.775-7.978 5.775 3.048-9.344-7.979-5.774h9.862l3.047-9.344ZM158.084 87.908l1.828 5.606h5.917l-4.787 3.464 1.829 5.606-4.787-3.464-4.787 3.464 1.828-5.606-4.786-3.464h5.917l1.828-5.606ZM179.802 91.964l1.371 4.205h4.438l-3.591 2.598 1.372 4.205-3.59-2.599-3.591 2.599 1.372-4.205-3.59-2.598h4.437l1.372-4.205ZM78.002 91.964l1.37 4.205h4.439l-3.59 2.598 1.37 4.205-3.59-2.599-3.59 2.599 1.372-4.205-3.59-2.598h4.437l1.372-4.205ZM99.719 87.908l1.828 5.606h5.917l-4.787 3.464 1.829 5.606-4.787-3.464-4.787 3.464 1.828-5.606-4.787-3.464h5.917l1.829-5.606Z" fill="#fff"/><defs><linearGradient id="a" x1="128" y1="316.984" x2="128" y2="199.5" gradientUnits="userSpaceOnUse"><stop stop-color="#A3B43E"/><stop offset="1" stop-color="#080C08"/></linearGradient><linearGradient id="b" x1=".038" y1="224.629" x2="234.21" y2="224.629" gradientUnits="userSpaceOnUse"><stop stop-color="#A3B43E"/><stop offset="1" stop-color="#D7E872"/></linearGradient></defs></svg>