<svg xmlns="http://www.w3.org/2000/svg" width="1155" height="638" fill="none"><g filter="url(#a)" opacity=".25"><path fill="#E4E4E4" d="M4.333 631a2.667 2.667 0 1 0 5.334 0 2.667 2.667 0 0 0-5.334 0ZM1147.41 4.717a.494.494 0 0 0-.69-.129l-3.71 2.551a.495.495 0 0 0-.13.696c.16.227.47.285.7.128l3.29-2.268 2.27 3.295c.16.228.47.285.69.129a.495.495 0 0 0 .13-.696l-2.55-3.706ZM9.558 622.688a.501.501 0 0 0-.97-.24l.97.24Zm3.179-16.855a.5.5 0 1 0 .97.245l-.97-.245Zm5.123-16.031a.5.5 0 0 0-.968-.25l.968.25Zm3.193-16.2a.5.5 0 1 0 .967.255l-.967-.255Zm5.131-15.361a.5.5 0 0 0-.965-.26l.965.26Zm3.206-15.555a.5.5 0 0 0 .964.266l-.964-.266Zm5.139-14.7a.5.5 0 0 0-.963-.272l.962.272Zm3.218-14.923a.5.5 0 1 0 .961.278l-.96-.278Zm5.146-14.048a.501.501 0 0 0-.959-.284l.959.284Zm4.013-16.873a.5.5 0 0 0 .956.291l-.956-.291Zm5.95-15.904a.5.5 0 0 0-.955-.299l.955.299Zm4.048-16.063a.501.501 0 0 0 .952.307l-.952-.307Zm5.959-15.014a.5.5 0 0 0-.95-.315l.95.315Zm4.067-15.214a.5.5 0 0 0 .946.323l-.946-.323Zm5.966-14.141a.499.499 0 1 0-.943-.332l.943.332Zm4.086-14.383a.5.5 0 0 0 .94.342l-.94-.342Zm6.836-15.577a.5.5 0 1 0-.936-.353l.936.353Zm5.166-16.206a.5.5 0 1 0 .93.365l-.93-.365Zm7.035-14.88a.5.5 0 0 0-.925-.378l.925.378Zm5.194-15.047a.5.5 0 0 0 .92.392l-.92-.392Zm7.042-13.682a.5.5 0 1 0-.914-.406l.914.406Zm5.223-13.921a.501.501 0 0 0 .907.421l-.907-.421Zm8.316-15.118a.5.5 0 1 0-.898-.44l.898.44Zm6.676-15.464a.5.5 0 0 0 .888.461l-.888-.461Zm8.463-13.714a.5.5 0 1 0-.876-.482l.876.482Zm6.723-13.865a.5.5 0 1 0 .862.506l-.862-.506Zm8.621-12.311a.5.5 0 0 0-.848-.53l.848.53Zm8.661-15.101a.5.5 0 0 0 .827.563l-.827-.563Zm10.329-12.779a.5.5 0 1 0-.802-.598l.802.598Zm8.744-12.807a.498.498 0 0 0 .069.703.498.498 0 0 0 .703-.069l-.772-.634Zm10.837-10.982a.5.5 0 0 0-.737-.676l.737.676Zm11.212-12.844a.5.5 0 0 0 .687.726l-.687-.726Zm12.603-9.714a.5.5 0 1 0-.628-.779l.628.779Zm11.697-9.865a.502.502 0 0 0 .556.832l-.556-.832Zm14.929-7.651a.5.5 0 0 0-.457-.89l.457.89Zm14.048-7.246a.5.5 0 1 0 .343.939l-.343-.939Zm15.569-3.466a.5.5 0 1 0-.21-.977l.21.977Zm15.822-3.234a.5.5 0 0 0 .068.998l-.068-.998Zm15.933 1.038a.5.5 0 1 0 .071-.997l-.071.997Zm15.921 1.173a.5.5 0 0 0-.197.981l.197-.981Zm15.551 5.12a.5.5 0 1 0 .308-.952l-.308.952Zm15.077 4.619a.5.5 0 0 0-.395.918l.395-.918Zm14.122 7.887a.5.5 0 1 0 .467-.884l-.467.884Zm14.656 7.269a.5.5 0 1 0-.526.85l.526-.85Zm12.587 9.49a.5.5 0 0 0 .572-.82l-.572.82Zm13.73 8.847a.5.5 0 1 0-.61.792l.61-.792Zm12.012 10.941a.5.5 0 0 0 .641-.767l-.641.767Zm12.609 9.596a.5.5 0 0 0-.667.745l.667-.745Zm11.277 11.754a.5.5 0 1 0 .688-.725l-.688.725Zm12.401 10.67a.5.5 0 0 0-.706.708l.706-.708Zm10.365 11.983a.5.5 0 0 0 .72-.693l-.72.693Zm11.801 11.042a.5.5 0 0 0-.733.68l.733-.68Zm10.332 12.809a.5.5 0 1 0 .744-.668l-.744.668Zm11.288 11.236a.499.499 0 1 0-.753.658l.753-.658Zm9.718 12.781a.5.5 0 0 0 .761-.649l-.761.649Zm11.232 11.741a.5.5 0 0 0-.767.642l.767-.642Zm9.583 13.118a.5.5 0 1 0 .772-.635l-.772.635Zm10.889 11.752a.5.5 0 1 0-.776.63l.776-.63Zm9.329 13.16a.5.5 0 1 0 .78-.625l-.78.625Zm10.88 12.026a.5.5 0 0 0-.783.622l.783-.622Zm9.23 13.262a.5.5 0 0 0 .785-.62l-.785.62Zm10.745 12.019a.5.5 0 0 0-.786.618l.786-.618Zm9.163 13.281a.5.5 0 1 0 .786-.618l-.786.618Zm10.724 12.039a.5.5 0 0 0-.786.618l.786-.618Zm9.219 13.339a.5.5 0 1 0 .785-.618l-.785.618Zm10.786 12.047a.5.5 0 1 0-.783.621l.783-.621Zm9.206 13.191a.501.501 0 0 0 .782-.624l-.782.624Zm10.81 11.883a.5.5 0 0 0-.779.627l.779-.627Zm9.487 13.282a.5.5 0 0 0 .775-.632l-.775.632Zm11.019 11.813a.5.5 0 0 0-.769.639l.769-.639Zm9.464 12.854a.5.5 0 1 0 .763-.646l-.763.646Zm11.293 11.663a.5.5 0 1 0-.756.654l.756-.654Zm9.987 12.9a.5.5 0 1 0 .747-.664l-.747.664Zm11.459 11.192a.5.5 0 0 0-.737.677l.737-.677Zm10.11 12.281a.5.5 0 0 0 .724-.689l-.724.689Zm12.221 11.122a.5.5 0 0 0-.709.706l.709-.706Zm10.777 11.953a.5.5 0 1 0 .69-.724l-.69.724Zm12.137 9.883a.5.5 0 0 0-.668.744l.668-.744Zm11.937 11.664a.5.5 0 1 0 .64-.768l-.64.768Zm13.175 9.23a.501.501 0 0 0-.606.796l.606-.796Zm12.142 10.01a.5.5 0 1 0 .564-.826l-.564.826Zm14.524 8.065a.5.5 0 0 0-.508.861l.508-.861Zm13.459 8.399a.5.5 0 0 0 .439-.898l-.439.898Zm15.216 5.475a.5.5 0 1 0-.349.937l.349-.937Zm15.13 5.703a.5.5 0 0 0 .235-.972l-.235.972Zm15.763 1.685a.5.5 0 0 0-.098.995l.098-.995Zm16.092 1.318a.5.5 0 0 0-.061-.998l.061.998Zm15.748-3.284a.499.499 0 1 0 .225.974l-.225-.974Zm15.242-3.756a.5.5 0 0 0-.373-.928l.373.928Zm14.417-8.196a.499.499 0 1 0 .503.864l-.503-.864Zm13.349-7.687a.5.5 0 1 0-.6-.8l.6.8Zm11.652-11.009a.499.499 0 1 0 .676.736l-.676-.736Zm12.791-11.437a.5.5 0 1 0-.738-.675l.738.675Zm8.899-11.907a.5.5 0 0 0 .778.628l-.778-.628Zm10.408-12.028a.5.5 0 0 0-.812-.584l.812.584Zm8.742-14.613a.5.5 0 0 0 .84.543l-.84-.543Zm9.227-13.029a.5.5 0 1 0-.86-.51l.86.51Zm6.639-13.667a.493.493 0 0 0 .19.679c.25.133.55.044.68-.198l-.87-.481Zm8.35-13.651a.494.494 0 0 0-.22-.673.5.5 0 0 0-.67.218l.89.455Zm6.55-15.528a.5.5 0 0 0 .9.43l-.9-.43Zm8.06-15.07a.499.499 0 1 0-.91-.409l.91.409Zm5.02-14a.5.5 0 0 0 .26.656c.25.108.55-.011.66-.265l-.92-.391Zm6.83-13.872a.501.501 0 0 0-.93-.375l.93.375Zm4.96-15.288a.499.499 0 0 0 .93.359l-.93-.359Zm6.81-15.243a.505.505 0 0 0-.3-.642.495.495 0 0 0-.64.297l.94.345Zm4.9-16.618a.503.503 0 0 0 .95.331l-.95-.331Zm6.04-14.454a.498.498 0 0 0-.31-.634.504.504 0 0 0-.64.314l.95.32Zm3.81-14.658c-.09.263.06.545.32.63.26.086.54-.058.63-.32l-.95-.31Zm5.69-14.513a.499.499 0 1 0-.95-.3l.95.3Zm3.78-15.595c-.08.264.07.543.33.624.26.08.54-.069.62-.333l-.95-.291Zm5.67-15.499a.494.494 0 0 0-.34-.62.502.502 0 0 0-.62.338l.96.282Zm3.74-16.554a.499.499 0 1 0 .96.273l-.96-.273Zm5.64-16.486a.492.492 0 0 0-.35-.614.496.496 0 0 0-.61.349l.96.265Zm2.93-14.627a.502.502 0 0 0 .97.259l-.97-.259Zm4.85-14.462a.498.498 0 0 0-.36-.609.503.503 0 0 0-.61.357l.97.252Zm2.91-15.32c-.07.267.09.539.36.607.27.068.54-.094.61-.362l-.97-.245Zm4.83-15.187a.5.5 0 0 0-.97-.24l.97.24Zm2.88-16.027c-.06.268.1.538.37.603.27.065.54-.101.6-.369l-.97-.234Zm4.82-15.923a.502.502 0 0 0-.98-.229l.98.229Zm2.85-16.747a.504.504 0 0 0 .98.223l-.98-.223Zm4.8-16.67a.503.503 0 0 0-.98-.218l.98.218Zm2.26-14.876c-.06.27.12.536.39.595a.5.5 0 0 0 .59-.381l-.98-.214Zm4.2-14.66a.495.495 0 0 0-.38-.593.507.507 0 0 0-.6.384l.98.209Zm2.24-15.35c-.06.27.11.535.38.592.27.057.54-.116.59-.386l-.97-.206Zm4.18-15.212a.505.505 0 0 0-.39-.59.497.497 0 0 0-.59.389l.98.201Zm2.22-15.89c-.06.27.12.534.39.589.27.055.53-.12.59-.391l-.98-.198Zm4.16-15.771a.494.494 0 0 0-.39-.588.506.506 0 0 0-.59.394l.98.194Zm2.2-16.438c-.05.27.13.533.4.585.27.053.53-.124.59-.395l-.99-.19Zm4.16-16.339a.504.504 0 0 0-.4-.584.495.495 0 0 0-.58.398l.98.186Zm2.18-16.994c-.05.272.13.533.4.584.27.05.53-.129.58-.4l-.98-.184ZM7.486 631.12c.69-2.825 1.381-5.635 2.072-8.431l-.97-.24c-.692 2.797-1.383 5.608-2.074 8.433l.972.238Zm6.22-25.041a3221.716 3221.716 0 0 1 4.154-16.276l-.968-.25a3251.224 3251.224 0 0 0-4.155 16.281l.97.245Zm8.314-32.221c1.387-5.26 2.775-10.465 4.164-15.616l-.965-.26c-1.39 5.153-2.779 10.36-4.166 15.621l.967.255Zm8.334-30.905c1.39-5.043 2.782-10.031 4.175-14.966l-.963-.272a2618.795 2618.795 0 0 0-4.176 14.972l.964.266Zm8.354-29.611c1.394-4.829 2.79-9.604 4.185-14.326l-.959-.284a2398.865 2398.865 0 0 0-4.186 14.332l.96.278Zm9.154-30.908a2103.57 2103.57 0 0 1 4.994-16.195l-.955-.299a2114.95 2114.95 0 0 0-4.995 16.203l.956.291Zm9.994-31.951a1849.544 1849.544 0 0 1 5.007-15.321l-.95-.315a1847.68 1847.68 0 0 0-5.009 15.329l.952.307Zm10.02-30.212c1.672-4.892 3.346-9.713 5.02-14.464l-.943-.332c-1.676 4.754-3.35 9.578-5.023 14.473l.946.323Zm10.046-28.505c1.964-5.402 3.93-10.708 5.896-15.919l-.936-.353a1397.973 1397.973 0 0 0-5.9 15.93l.94.342Zm11.992-31.76a1178.068 1178.068 0 0 1 6.105-15.245l-.925-.378a1177.225 1177.225 0 0 0-6.11 15.258l.93.365Zm12.219-29.9a984.683 984.683 0 0 1 6.122-14.074l-.914-.406a991.611 991.611 0 0 0-6.128 14.088l.92.392Zm12.252-27.574a824.702 824.702 0 0 1 7.409-15.539l-.898-.44a817.623 817.623 0 0 0-7.418 15.558l.907.421Zm14.973-30.542a646.662 646.662 0 0 1 7.575-14.175l-.876-.482a650.864 650.864 0 0 0-7.587 14.196l.888.461Zm15.16-27.534a514.23 514.23 0 0 1 7.759-12.817l-.848-.53a514.97 514.97 0 0 0-7.773 12.841l.862.506Zm17.247-27.355a383.439 383.439 0 0 1 9.502-13.342l-.802-.598a386.415 386.415 0 0 0-9.527 13.377l.827.563Zm19.018-25.515a283.85 283.85 0 0 1 10.065-11.616l-.737-.676a284.243 284.243 0 0 0-10.1 11.658l.772.634Zm21.964-23.734a200.612 200.612 0 0 1 11.916-10.44l-.628-.779a201.41 201.41 0 0 0-11.975 10.493l.687.726Zm24.169-19.473a144.885 144.885 0 0 1 14.373-8.483l-.457-.89a145.913 145.913 0 0 0-14.472 8.541l.556.832Zm28.764-14.79a115.178 115.178 0 0 1 15.226-4.405l-.21-.977a116.144 116.144 0 0 0-15.359 4.443l.343.939Zm31.116-6.641a114.136 114.136 0 0 1 15.865.04l.071-.997a115.204 115.204 0 0 0-16.004-.041l.068.998Zm31.589 2.194a142.686 142.686 0 0 1 15.748 4.139l.308-.952a143.9 143.9 0 0 0-15.859-4.168l-.197.981Zm30.43 9.676a200.598 200.598 0 0 1 14.517 6.969l.467-.884a200.954 200.954 0 0 0-14.589-7.003l-.395.918Zm28.647 15.088c4.369 2.706 8.74 5.59 13.113 8.64l.572-.82a288.192 288.192 0 0 0-13.159-8.67l-.526.85Zm26.233 18.279a406.245 406.245 0 0 1 12.622 10.149l.641-.767a405.884 405.884 0 0 0-12.653-10.174l-.61.792Zm24.564 20.49a561.573 561.573 0 0 1 11.944 11.009l.688-.725a558.556 558.556 0 0 0-11.965-11.029l-.667.745Zm23.639 22.387c3.69 3.68 7.381 7.44 11.071 11.275l.72-.693a758.473 758.473 0 0 0-11.085-11.29l-.706.708Zm22.139 22.997c3.689 3.977 7.378 8.023 11.065 12.129l.744-.668c-3.691-4.11-7.383-8.159-11.076-12.141l-.733.68Zm21.6 24.023c3.492 3.994 6.982 8.037 10.471 12.123l.761-.649a1389.51 1389.51 0 0 0-10.479-12.132l-.753.658Zm20.936 24.506c3.451 4.124 6.901 8.284 10.35 12.476l.772-.635c-3.45-4.194-6.902-8.357-10.355-12.483l-.767.642Zm20.463 24.858c3.37 4.154 6.738 8.332 10.105 12.53l.78-.625c-3.368-4.2-6.738-8.38-10.109-12.535l-.776.63Zm20.202 25.178c3.34 4.201 6.677 8.416 10.013 12.64l.785-.62a5025.15 5025.15 0 0 0-10.015-12.642l-.783.622ZM577.21 361.9c3.318 4.219 6.634 8.441 9.949 12.663l.786-.618c-3.314-4.221-6.631-8.444-9.949-12.663l-.786.618Zm19.887 25.32a11853.9 11853.9 0 0 0 10.005 12.721l.785-.618c-3.332-4.231-6.667-8.473-10.004-12.721l-.786.618Zm20.008 25.389a4320.64 4320.64 0 0 0 9.989 12.57l.782-.624c-3.327-4.169-6.656-8.36-9.988-12.567l-.783.621Zm20.02 25.08c3.425 4.249 6.847 8.469 10.266 12.655l.775-.632a2514.257 2514.257 0 0 1-10.262-12.65l-.779.627Zm20.516 25.107c3.414 4.113 6.825 8.187 10.233 12.215l.763-.646a1691.339 1691.339 0 0 1-10.227-12.208l-.769.639Zm20.77 24.532c3.584 4.141 7.166 8.225 10.743 12.246l.747-.664a1218.738 1218.738 0 0 1-10.734-12.236l-.756.654Zm21.465 24.115a870.743 870.743 0 0 0 10.847 11.604l.724-.689a868.895 868.895 0 0 1-10.834-11.592l-.737.677Zm22.359 23.432a624.06 624.06 0 0 0 11.486 11.247l.69-.724a621.98 621.98 0 0 1-11.467-11.229l-.709.706Zm22.955 21.874a443.465 443.465 0 0 0 12.605 10.92l.64-.768a442.682 442.682 0 0 1-12.577-10.896l-.668.744Zm25.174 20.946a305.703 305.703 0 0 0 12.748 9.214l.564-.826a303.198 303.198 0 0 1-12.706-9.184l-.606.796Zm26.764 18.14c4.664 2.75 9.32 5.268 13.967 7.538l.439-.898a202.499 202.499 0 0 1-13.898-7.501l-.508.861Zm28.834 13.95c5.17 1.926 10.33 3.522 15.479 4.766l.235-.972c-5.107-1.234-10.229-2.818-15.365-4.731l-.349.937Zm31.144 7.446c5.411.534 10.808.65 16.19.323l-.061-.998c-5.327.324-10.671.209-16.031-.32l-.098.995Zm32.163-1.987a101.372 101.372 0 0 0 15.017-4.73l-.373-.928a100.356 100.356 0 0 1-14.869 4.684l.225.974Zm29.937-12.062a133.942 133.942 0 0 0 12.846-8.551l-.6-.8a133.177 133.177 0 0 1-12.749 8.487l.503.864Zm25.174-18.824c4.051-3.719 8.089-7.773 12.115-12.173l-.738-.675a196.528 196.528 0 0 1-12.053 12.112l.676.736Zm21.792-23.452a286.42 286.42 0 0 0 9.63-12.656l-.812-.584a284.612 284.612 0 0 1-9.596 12.612l.778.628Zm19.212-26.726a404.43 404.43 0 0 0 8.387-13.572l-.86-.51a402.077 402.077 0 0 1-8.367 13.539l.84.543Zm15.896-26.758a540.68 540.68 0 0 0 7.48-14.132l-.89-.455a537.226 537.226 0 0 1-7.46 14.106l.87.481Zm14.93-29.23a702.846 702.846 0 0 0 7.16-15.5l-.91-.409a700.955 700.955 0 0 1-7.15 15.479l.9.43Zm13.1-29.109a943.38 943.38 0 0 0 5.91-14.263l-.93-.375a848.447 848.447 0 0 1-5.9 14.247l.92.391Zm11.8-29.192a1162.57 1162.57 0 0 0 5.88-15.602l-.94-.345c-1.95 5.309-3.91 10.505-5.87 15.588l.93.359Zm11.73-31.889c1.7-4.84 3.4-9.768 5.09-14.785l-.95-.32c-1.69 5.013-3.39 9.938-5.09 14.774l.95.331Zm9.85-29.133c1.58-4.862 3.16-9.803 4.74-14.823l-.95-.3c-1.58 5.017-3.16 9.955-4.74 14.813l.95.31Zm9.47-30.127c1.58-5.182 3.15-10.445 4.72-15.79l-.96-.282c-1.57 5.342-3.14 10.602-4.71 15.781l.95.291Zm9.42-32.071c1.56-5.503 3.12-11.089 4.68-16.759l-.96-.265c-1.56 5.667-3.12 11.25-4.68 16.751l.96.273Zm8.58-31.127c1.29-4.848 2.59-9.755 3.88-14.721l-.97-.252c-1.29 4.964-2.58 9.868-3.88 14.714l.97.259Zm7.76-29.796c1.29-5.084 2.57-10.228 3.86-15.432l-.97-.24c-1.29 5.202-2.57 10.344-3.86 15.427l.97.245Zm7.71-31.225c1.29-5.325 2.57-10.71 3.85-16.157l-.98-.229c-1.28 5.445-2.56 10.829-3.84 16.152l.97.234Zm7.68-32.681c1.27-5.569 2.55-11.2 3.82-16.893l-.98-.218c-1.27 5.691-2.54 11.32-3.82 16.888l.98.223Zm7.06-31.555c1.08-4.913 2.15-9.871 3.22-14.874l-.98-.209c-1.07 5.001-2.14 9.957-3.22 14.869l.98.214Zm6.43-30.018c1.07-5.094 2.14-10.233 3.21-15.418l-.98-.201c-1.07 5.183-2.14 10.321-3.2 15.413l.97.206Zm6.41-31.11c1.06-5.277 2.12-10.6 3.18-15.97l-.98-.193c-1.06 5.368-2.12 10.69-3.18 15.965l.98.198Zm6.37-32.217c1.05-5.463 2.11-10.972 3.17-16.529l-.98-.186a5325.33 5325.33 0 0 1-3.18 16.524l.99.19Zm6.33-33.34c.53-2.825 1.06-5.662 1.58-8.511l-.98-.182c-.53 2.849-1.05 5.686-1.58 8.51l.98.184Z"/></g><defs><filter id="a" width="1153.72" height="637.167" x=".333" y=".5" color-interpolation-filters="sRGB" filterUnits="userSpaceOnUse"><feFlood flood-opacity="0" result="BackgroundImageFix"/><feBlend in="SourceGraphic" in2="BackgroundImageFix" result="shape"/><feGaussianBlur result="effect1_foregroundBlur_14_186" stdDeviation="2"/></filter></defs></svg>