<svg width="1155" height="638" viewBox="0 0 1155 638" fill="none" xmlns="http://www.w3.org/2000/svg">
<g opacity="0.25" filter="url(#filter0_f_14_186)">
<path d="M4.33333 631C4.33333 632.473 5.52724 633.667 7 633.667C8.47276 633.667 9.66667 632.473 9.66667 631C9.66667 629.527 8.47276 628.333 7 628.333C5.52724 628.333 4.33333 629.527 4.33333 631ZM1147.41 4.71652C1147.26 4.48905 1146.94 4.43157 1146.72 4.58813L1143.01 7.13945C1142.78 7.29601 1142.72 7.60733 1142.88 7.8348C1143.04 8.06227 1143.35 8.11975 1143.58 7.96319L1146.87 5.69535L1149.14 8.99034C1149.3 9.21781 1149.61 9.27529 1149.83 9.11873C1150.06 8.96217 1150.12 8.65085 1149.96 8.42338L1147.41 4.71652ZM9.55797 622.688C9.62422 622.42 9.4606 622.149 9.19252 622.082C8.92444 622.016 8.65342 622.18 8.58717 622.448L9.55797 622.688ZM12.737 605.833C12.6694 606.101 12.8316 606.373 13.0994 606.44C13.3671 606.508 13.639 606.346 13.7066 606.078L12.737 605.833ZM17.8605 589.802C17.9295 589.535 17.7687 589.262 17.5013 589.193C17.2339 589.124 16.9612 589.285 16.8922 589.552L17.8605 589.802ZM21.0528 573.602C20.9824 573.869 21.1417 574.143 21.4087 574.213C21.6758 574.284 21.9493 574.124 22.0197 573.857L21.0528 573.602ZM26.1842 558.241C26.2561 557.975 26.0982 557.7 25.8316 557.628C25.565 557.556 25.2906 557.714 25.2187 557.981L26.1842 558.241ZM29.3898 542.686C29.3164 542.952 29.4726 543.227 29.7388 543.301C30.005 543.374 30.2804 543.218 30.3538 542.952L29.3898 542.686ZM34.5285 527.986C34.6035 527.72 34.4488 527.444 34.1831 527.369C33.9173 527.294 33.6411 527.448 33.5661 527.714L34.5285 527.986ZM37.7475 513.063C37.6709 513.329 37.8239 513.606 38.0892 513.682C38.3545 513.759 38.6316 513.606 38.7082 513.341L37.7475 513.063ZM42.893 499.015C42.9713 498.75 42.82 498.472 42.5552 498.393C42.2904 498.315 42.0123 498.466 41.934 498.731L42.893 499.015ZM46.9058 482.142C46.8255 482.406 46.9745 482.686 47.2387 482.766C47.5029 482.846 47.7822 482.697 47.8625 482.433L46.9058 482.142ZM52.8559 466.238C52.9383 465.974 52.7915 465.694 52.5279 465.611C52.2644 465.529 51.9839 465.676 51.9015 465.939L52.8559 466.238ZM56.9041 450.175C56.8195 450.438 56.9639 450.72 57.2268 450.805C57.4896 450.889 57.7713 450.745 57.856 450.482L56.9041 450.175ZM62.8627 435.161C62.9497 434.899 62.8077 434.616 62.5456 434.529C62.2835 434.442 62.0005 434.584 61.9136 434.846L62.8627 435.161ZM66.9298 419.947C66.8405 420.208 66.9799 420.492 67.2412 420.582C67.5025 420.671 67.7867 420.532 67.8761 420.27L66.9298 419.947ZM72.8958 405.806C72.9876 405.546 72.8509 405.26 72.5905 405.169C72.33 405.077 72.0445 405.214 71.9527 405.474L72.8958 405.806ZM76.9822 391.423C76.8878 391.682 77.0217 391.969 77.2812 392.064C77.5408 392.158 77.8276 392.024 77.922 391.765L76.9822 391.423ZM83.818 375.846C83.9155 375.588 83.7851 375.299 83.5267 375.202C83.2684 375.104 82.9799 375.235 82.8824 375.493L83.818 375.846ZM88.9835 359.64C88.8826 359.897 89.0092 360.187 89.2662 360.288C89.5233 360.389 89.8134 360.262 89.9143 360.005L88.9835 359.64ZM96.0195 344.76C96.1239 344.505 96.0014 344.213 95.7458 344.108C95.4902 344.004 95.1983 344.126 95.0938 344.382L96.0195 344.76ZM101.213 329.713C101.105 329.967 101.223 330.261 101.477 330.369C101.731 330.477 102.025 330.359 102.133 330.105L101.213 329.713ZM108.255 316.031C108.367 315.778 108.254 315.483 108.001 315.371C107.749 315.259 107.454 315.372 107.341 315.625L108.255 316.031ZM113.478 302.11C113.362 302.36 113.471 302.657 113.721 302.774C113.972 302.89 114.269 302.781 114.385 302.531L113.478 302.11ZM121.794 286.992C121.916 286.744 121.813 286.445 121.565 286.323C121.317 286.202 121.018 286.304 120.896 286.552L121.794 286.992ZM128.47 271.528C128.343 271.773 128.439 272.075 128.684 272.202C128.929 272.329 129.231 272.234 129.358 271.989L128.47 271.528ZM136.933 257.814C137.066 257.572 136.978 257.268 136.736 257.135C136.494 257.002 136.19 257.09 136.057 257.332L136.933 257.814ZM143.656 243.949C143.516 244.188 143.596 244.494 143.834 244.634C144.073 244.773 144.379 244.693 144.518 244.455L143.656 243.949ZM152.277 231.638C152.423 231.404 152.352 231.096 152.118 230.949C151.884 230.803 151.576 230.874 151.429 231.108L152.277 231.638ZM160.938 216.537C160.783 216.765 160.842 217.076 161.07 217.231C161.298 217.387 161.609 217.328 161.765 217.1L160.938 216.537ZM171.267 203.758C171.432 203.536 171.387 203.223 171.165 203.058C170.944 202.893 170.63 202.939 170.465 203.16L171.267 203.758ZM180.011 190.951C179.835 191.164 179.866 191.479 180.08 191.654C180.293 191.83 180.608 191.799 180.783 191.585L180.011 190.951ZM190.848 179.969C191.035 179.765 191.021 179.449 190.817 179.263C190.614 179.076 190.298 179.09 190.111 179.293L190.848 179.969ZM202.06 167.125C201.859 167.315 201.851 167.631 202.04 167.832C202.23 168.032 202.547 168.041 202.747 167.851L202.06 167.125ZM214.663 157.411C214.878 157.237 214.912 156.922 214.738 156.708C214.565 156.493 214.25 156.459 214.035 156.632L214.663 157.411ZM226.36 147.546C226.131 147.7 226.069 148.01 226.222 148.24C226.376 148.47 226.686 148.531 226.916 148.378L226.36 147.546ZM241.289 139.895C241.534 139.769 241.631 139.468 241.505 139.222C241.379 138.976 241.078 138.879 240.832 139.005L241.289 139.895ZM255.337 132.649C255.078 132.743 254.944 133.03 255.039 133.29C255.133 133.549 255.42 133.683 255.68 133.588L255.337 132.649ZM270.906 129.183C271.176 129.125 271.348 128.859 271.29 128.589C271.232 128.319 270.966 128.147 270.696 128.206L270.906 129.183ZM286.728 125.949C286.453 125.968 286.244 126.206 286.263 126.482C286.282 126.757 286.52 126.965 286.796 126.947L286.728 125.949ZM302.661 126.987C302.937 127.007 303.176 126.8 303.195 126.524C303.215 126.249 303.008 126.01 302.732 125.99L302.661 126.987ZM318.582 128.16C318.311 128.106 318.048 128.281 317.993 128.552C317.939 128.823 318.114 129.086 318.385 129.141L318.582 128.16ZM334.133 133.28C334.396 133.365 334.678 133.221 334.763 132.958C334.848 132.695 334.704 132.413 334.441 132.328L334.133 133.28ZM349.21 137.899C348.957 137.79 348.662 137.907 348.553 138.161C348.444 138.414 348.562 138.708 348.815 138.817L349.21 137.899ZM363.332 145.786C363.576 145.915 363.879 145.822 364.008 145.578C364.137 145.334 364.044 145.031 363.799 144.902L363.332 145.786ZM377.988 153.055C377.753 152.91 377.445 152.982 377.3 153.217C377.154 153.452 377.227 153.76 377.462 153.905L377.988 153.055ZM390.575 162.545C390.801 162.703 391.113 162.647 391.271 162.421C391.429 162.194 391.373 161.883 391.147 161.725L390.575 162.545ZM404.305 171.392C404.087 171.223 403.773 171.264 403.604 171.482C403.436 171.701 403.476 172.015 403.695 172.184L404.305 171.392ZM416.317 182.333C416.528 182.51 416.844 182.482 417.021 182.271C417.198 182.059 417.17 181.743 416.958 181.566L416.317 182.333ZM428.926 191.929C428.72 191.745 428.404 191.763 428.22 191.968C428.036 192.174 428.053 192.49 428.259 192.674L428.926 191.929ZM440.203 203.683C440.403 203.873 440.72 203.865 440.91 203.664C441.1 203.464 441.091 203.148 440.891 202.958L440.203 203.683ZM452.604 214.353C452.408 214.158 452.092 214.159 451.897 214.354C451.702 214.55 451.702 214.866 451.898 215.061L452.604 214.353ZM462.969 226.336C463.16 226.535 463.477 226.541 463.676 226.35C463.875 226.158 463.881 225.842 463.689 225.643L462.969 226.336ZM474.77 237.378C474.583 237.176 474.266 237.164 474.064 237.351C473.861 237.539 473.849 237.856 474.037 238.058L474.77 237.378ZM485.102 250.187C485.287 250.393 485.603 250.409 485.808 250.225C486.014 250.04 486.031 249.724 485.846 249.519L485.102 250.187ZM496.39 261.423C496.208 261.215 495.893 261.194 495.685 261.376C495.477 261.558 495.456 261.874 495.637 262.081L496.39 261.423ZM506.108 274.204C506.288 274.414 506.603 274.439 506.813 274.26C507.023 274.081 507.048 273.765 506.869 273.555L506.108 274.204ZM517.34 285.945C517.163 285.734 516.848 285.706 516.636 285.883C516.424 286.06 516.396 286.375 516.573 286.587L517.34 285.945ZM526.923 299.063C527.098 299.276 527.413 299.307 527.626 299.132C527.84 298.956 527.87 298.641 527.695 298.428L526.923 299.063ZM537.812 310.815C537.638 310.6 537.323 310.568 537.109 310.742C536.895 310.916 536.862 311.23 537.036 311.445L537.812 310.815ZM547.141 323.975C547.314 324.191 547.629 324.225 547.844 324.052C548.06 323.88 548.094 323.565 547.921 323.35L547.141 323.975ZM558.021 336.001C557.849 335.785 557.535 335.749 557.319 335.921C557.102 336.092 557.066 336.407 557.238 336.623L558.021 336.001ZM567.251 349.263C567.422 349.479 567.737 349.516 567.954 349.345C568.17 349.174 568.207 348.859 568.036 348.643L567.251 349.263ZM577.996 361.282C577.825 361.065 577.511 361.028 577.294 361.198C577.077 361.369 577.039 361.683 577.21 361.9L577.996 361.282ZM587.159 374.563C587.329 374.78 587.644 374.818 587.861 374.647C588.078 374.477 588.116 374.162 587.945 373.945L587.159 374.563ZM597.883 386.602C597.712 386.385 597.398 386.347 597.181 386.517C596.964 386.688 596.926 387.002 597.097 387.22L597.883 386.602ZM607.102 399.941C607.273 400.158 607.587 400.196 607.804 400.025C608.021 399.854 608.058 399.539 607.887 399.323L607.102 399.941ZM617.888 411.988C617.717 411.772 617.403 411.735 617.186 411.906C616.97 412.078 616.933 412.392 617.105 412.609L617.888 411.988ZM627.094 425.179C627.266 425.394 627.581 425.43 627.797 425.258C628.012 425.085 628.048 424.771 627.876 424.555L627.094 425.179ZM637.904 437.062C637.731 436.847 637.416 436.813 637.201 436.986C636.986 437.16 636.952 437.474 637.125 437.689L637.904 437.062ZM647.391 450.344C647.566 450.558 647.881 450.59 648.095 450.415C648.309 450.24 648.34 449.926 648.166 449.712L647.391 450.344ZM658.41 462.157C658.234 461.945 657.919 461.916 657.706 462.092C657.494 462.268 657.465 462.583 657.641 462.796L658.41 462.157ZM667.874 475.011C668.052 475.222 668.368 475.248 668.578 475.07C668.789 474.892 668.815 474.576 668.637 474.365L667.874 475.011ZM679.167 486.674C678.986 486.465 678.67 486.442 678.462 486.623C678.253 486.804 678.23 487.119 678.411 487.328L679.167 486.674ZM689.154 499.574C689.338 499.781 689.654 499.799 689.86 499.616C690.066 499.432 690.085 499.116 689.901 498.91L689.154 499.574ZM700.613 510.766C700.426 510.563 700.11 510.549 699.906 510.736C699.703 510.923 699.689 511.239 699.876 511.443L700.613 510.766ZM710.723 523.047C710.913 523.247 711.23 523.255 711.43 523.065C711.63 522.874 711.638 522.558 711.447 522.358L710.723 523.047ZM722.944 534.169C722.749 533.974 722.432 533.973 722.237 534.168C722.041 534.363 722.041 534.679 722.235 534.875L722.944 534.169ZM733.721 546.122C733.92 546.312 734.237 546.305 734.427 546.105C734.618 545.905 734.611 545.589 734.411 545.398L733.721 546.122ZM745.858 556.005C745.653 555.821 745.337 555.838 745.152 556.043C744.968 556.248 744.984 556.564 745.19 556.749L745.858 556.005ZM757.795 567.669C758.007 567.846 758.323 567.817 758.499 567.605C758.676 567.393 758.647 567.077 758.435 566.901L757.795 567.669ZM770.97 576.899C770.75 576.732 770.436 576.775 770.269 576.994C770.102 577.214 770.144 577.528 770.364 577.695L770.97 576.899ZM783.112 586.909C783.341 587.065 783.652 587.006 783.807 586.778C783.963 586.55 783.905 586.239 783.676 586.083L783.112 586.909ZM797.636 594.974C797.398 594.834 797.092 594.913 796.951 595.151C796.811 595.389 796.89 595.695 797.128 595.835L797.636 594.974ZM811.095 603.373C811.343 603.494 811.642 603.391 811.764 603.143C811.885 602.895 811.782 602.596 811.534 602.475L811.095 603.373ZM826.311 608.848C826.052 608.752 825.764 608.883 825.668 609.142C825.572 609.401 825.703 609.689 825.962 609.785L826.311 608.848ZM841.441 614.551C841.709 614.616 841.979 614.451 842.044 614.183C842.109 613.914 841.944 613.644 841.676 613.579L841.441 614.551ZM857.204 616.236C856.93 616.209 856.685 616.41 856.658 616.684C856.631 616.959 856.831 617.204 857.106 617.231L857.204 616.236ZM873.296 617.554C873.572 617.537 873.781 617.3 873.765 617.024C873.748 616.749 873.511 616.539 873.235 616.556L873.296 617.554ZM889.044 614.27C888.775 614.332 888.608 614.6 888.67 614.869C888.732 615.138 889 615.306 889.269 615.244L889.044 614.27ZM904.286 610.514C904.542 610.411 904.666 610.12 904.563 609.863C904.461 609.607 904.169 609.483 903.913 609.586L904.286 610.514ZM918.703 602.318C918.464 602.457 918.383 602.763 918.523 603.002C918.662 603.24 918.968 603.321 919.206 603.182L918.703 602.318ZM932.052 594.631C932.272 594.465 932.317 594.152 932.152 593.931C931.986 593.71 931.673 593.665 931.452 593.831L932.052 594.631ZM943.704 583.622C943.5 583.809 943.487 584.125 943.674 584.328C943.86 584.532 944.177 584.545 944.38 584.358L943.704 583.622ZM956.495 572.185C956.682 571.981 956.668 571.665 956.464 571.478C956.26 571.292 955.944 571.306 955.757 571.51L956.495 572.185ZM965.394 560.278C965.221 560.493 965.254 560.808 965.469 560.981C965.684 561.154 965.999 561.121 966.172 560.906L965.394 560.278ZM975.802 548.25C975.963 548.026 975.912 547.714 975.688 547.552C975.464 547.391 975.152 547.442 974.99 547.666L975.802 548.25ZM984.544 533.637C984.395 533.869 984.461 534.178 984.693 534.328C984.925 534.478 985.234 534.412 985.384 534.18L984.544 533.637ZM993.771 520.608C993.912 520.37 993.833 520.063 993.596 519.923C993.358 519.782 993.051 519.861 992.911 520.098L993.771 520.608ZM1000.41 506.941C1000.27 507.183 1000.36 507.487 1000.6 507.62C1000.85 507.753 1001.15 507.664 1001.28 507.422L1000.41 506.941ZM1008.76 493.29C1008.89 493.044 1008.79 492.743 1008.54 492.617C1008.3 492.491 1008 492.589 1007.87 492.835L1008.76 493.29ZM1015.31 477.762C1015.19 478.011 1015.3 478.309 1015.55 478.428C1015.79 478.547 1016.09 478.441 1016.21 478.192L1015.31 477.762ZM1023.37 462.692C1023.48 462.439 1023.37 462.144 1023.12 462.031C1022.87 461.918 1022.57 462.031 1022.46 462.283L1023.37 462.692ZM1028.39 448.692C1028.28 448.946 1028.4 449.24 1028.65 449.348C1028.9 449.456 1029.2 449.337 1029.31 449.083L1028.39 448.692ZM1035.22 434.82C1035.32 434.564 1035.2 434.272 1034.94 434.169C1034.69 434.065 1034.4 434.189 1034.29 434.445L1035.22 434.82ZM1040.18 419.532C1040.08 419.789 1040.21 420.079 1040.47 420.178C1040.72 420.277 1041.01 420.149 1041.11 419.891L1040.18 419.532ZM1046.99 404.289C1047.08 404.029 1046.95 403.742 1046.69 403.647C1046.43 403.552 1046.14 403.684 1046.05 403.944L1046.99 404.289ZM1051.89 387.671C1051.8 387.931 1051.94 388.217 1052.2 388.308C1052.46 388.4 1052.75 388.263 1052.84 388.002L1051.89 387.671ZM1057.93 373.217C1058.02 372.955 1057.88 372.671 1057.62 372.583C1057.35 372.495 1057.07 372.635 1056.98 372.897L1057.93 373.217ZM1061.74 358.559C1061.65 358.822 1061.8 359.104 1062.06 359.189C1062.32 359.275 1062.6 359.131 1062.69 358.869L1061.74 358.559ZM1067.43 344.046C1067.52 343.782 1067.37 343.501 1067.11 343.419C1066.84 343.336 1066.56 343.482 1066.48 343.746L1067.43 344.046ZM1071.21 328.451C1071.13 328.715 1071.28 328.994 1071.54 329.075C1071.8 329.155 1072.08 329.006 1072.16 328.742L1071.21 328.451ZM1076.88 312.952C1076.96 312.687 1076.81 312.409 1076.54 312.332C1076.28 312.254 1076 312.405 1075.92 312.67L1076.88 312.952ZM1080.62 296.398C1080.54 296.664 1080.7 296.94 1080.96 297.016C1081.23 297.091 1081.51 296.937 1081.58 296.671L1080.62 296.398ZM1086.26 279.912C1086.34 279.646 1086.18 279.371 1085.91 279.298C1085.65 279.224 1085.37 279.381 1085.3 279.647L1086.26 279.912ZM1089.19 265.285C1089.12 265.552 1089.28 265.826 1089.55 265.897C1089.81 265.969 1090.09 265.81 1090.16 265.544L1089.19 265.285ZM1094.04 250.823C1094.11 250.556 1093.95 250.283 1093.68 250.214C1093.42 250.144 1093.14 250.304 1093.07 250.571L1094.04 250.823ZM1096.95 235.503C1096.88 235.77 1097.04 236.042 1097.31 236.11C1097.58 236.178 1097.85 236.016 1097.92 235.748L1096.95 235.503ZM1101.78 220.316C1101.85 220.048 1101.68 219.777 1101.41 219.711C1101.15 219.644 1100.88 219.808 1100.81 220.076L1101.78 220.316ZM1104.66 204.289C1104.6 204.557 1104.76 204.827 1105.03 204.892C1105.3 204.957 1105.57 204.791 1105.63 204.523L1104.66 204.289ZM1109.48 188.366C1109.54 188.097 1109.37 187.828 1109.1 187.765C1108.83 187.702 1108.57 187.869 1108.5 188.137L1109.48 188.366ZM1112.33 171.619C1112.27 171.888 1112.44 172.156 1112.71 172.218C1112.98 172.28 1113.25 172.111 1113.31 171.842L1112.33 171.619ZM1117.13 154.949C1117.19 154.679 1117.02 154.412 1116.75 154.352C1116.48 154.292 1116.21 154.461 1116.15 154.731L1117.13 154.949ZM1119.39 140.073C1119.33 140.343 1119.51 140.609 1119.78 140.668C1120.04 140.727 1120.31 140.556 1120.37 140.287L1119.39 140.073ZM1123.59 125.413C1123.65 125.143 1123.48 124.877 1123.21 124.82C1122.94 124.762 1122.67 124.934 1122.61 125.204L1123.59 125.413ZM1125.83 110.063C1125.77 110.333 1125.94 110.598 1126.21 110.655C1126.48 110.712 1126.75 110.539 1126.8 110.269L1125.83 110.063ZM1130.01 94.8513C1130.06 94.5808 1129.89 94.3164 1129.62 94.2608C1129.35 94.2051 1129.08 94.3793 1129.03 94.6497L1130.01 94.8513ZM1132.23 78.961C1132.17 79.2317 1132.35 79.4954 1132.62 79.55C1132.89 79.6046 1133.15 79.4294 1133.21 79.1587L1132.23 78.961ZM1136.39 63.1897C1136.45 62.9188 1136.27 62.6558 1136 62.6022C1135.73 62.5487 1135.47 62.7248 1135.41 62.9957L1136.39 63.1897ZM1138.59 46.7515C1138.54 47.0226 1138.72 47.2849 1138.99 47.3375C1139.26 47.39 1139.52 47.2129 1139.58 46.9418L1138.59 46.7515ZM1142.75 30.4134C1142.8 30.1421 1142.62 29.8804 1142.35 29.8288C1142.08 29.7772 1141.82 29.9554 1141.77 30.2266L1142.75 30.4134ZM1144.93 13.4194C1144.88 13.6909 1145.06 13.952 1145.33 14.0026C1145.6 14.0532 1145.86 13.8742 1145.91 13.6027L1144.93 13.4194ZM7.48569 631.119C8.17623 628.294 8.86699 625.484 9.55797 622.688L8.58717 622.448C7.89599 625.245 7.20503 628.056 6.51431 630.881L7.48569 631.119ZM13.7066 606.078C15.0903 600.597 16.475 595.172 17.8605 589.802L16.8922 589.552C15.5062 594.924 14.1212 600.351 12.737 605.833L13.7066 606.078ZM22.0197 573.857C23.407 568.597 24.7952 563.392 26.1842 558.241L25.2187 557.981C23.8292 563.134 22.4405 568.341 21.0528 573.602L22.0197 573.857ZM30.3538 542.952C31.7445 537.909 33.1361 532.921 34.5285 527.986L33.5661 527.714C32.1731 532.651 30.781 537.641 29.3898 542.686L30.3538 542.952ZM38.7082 513.341C40.1023 508.512 41.4973 503.737 42.893 499.015L41.934 498.731C40.5377 503.456 39.1422 508.233 37.7475 513.063L38.7082 513.341ZM47.8625 482.433C49.5258 476.961 51.1903 471.563 52.8559 466.238L51.9015 465.939C50.2351 471.267 48.5698 476.668 46.9058 482.142L47.8625 482.433ZM57.856 450.482C59.5238 445.303 61.1927 440.196 62.8627 435.161L61.9136 434.846C60.2426 439.884 58.5728 444.993 56.9041 450.175L57.856 450.482ZM67.8761 420.27C69.5483 415.378 71.2215 410.557 72.8958 405.806L71.9527 405.474C70.2773 410.228 68.603 415.052 66.9298 419.947L67.8761 420.27ZM77.922 391.765C79.8859 386.363 81.8512 381.057 83.818 375.846L82.8824 375.493C80.9142 380.708 78.9474 386.018 76.9822 391.423L77.922 391.765ZM89.9143 360.005C91.9479 354.824 93.983 349.743 96.0195 344.76L95.0938 344.382C93.0555 349.369 91.0187 354.455 88.9835 359.64L89.9143 360.005ZM102.133 330.105C104.172 325.317 106.213 320.626 108.255 316.031L107.341 315.625C105.297 320.225 103.254 324.921 101.213 329.713L102.133 330.105ZM114.385 302.531C116.853 297.215 119.323 292.036 121.794 286.992L120.896 286.552C118.421 291.602 115.949 296.787 113.478 302.11L114.385 302.531ZM129.358 271.989C131.881 267.126 134.406 262.402 136.933 257.814L136.057 257.332C133.526 261.927 130.997 266.659 128.47 271.528L129.358 271.989ZM144.518 244.455C147.103 240.044 149.689 235.773 152.277 231.638L151.429 231.108C148.836 235.251 146.245 239.531 143.656 243.949L144.518 244.455ZM161.765 217.1C164.93 212.454 168.097 208.009 171.267 203.758L170.465 203.16C167.287 207.423 164.111 211.88 160.938 216.537L161.765 217.1ZM180.783 191.585C184.136 187.503 187.491 183.632 190.848 179.969L190.111 179.293C186.741 182.971 183.374 186.855 180.011 190.951L180.783 191.585ZM202.747 167.851C206.717 164.094 210.689 160.617 214.663 157.411L214.035 156.632C210.039 159.856 206.047 163.351 202.06 167.125L202.747 167.851ZM226.916 148.378C231.704 145.177 236.495 142.355 241.289 139.895L240.832 139.005C236.003 141.483 231.178 144.325 226.36 147.546L226.916 148.378ZM255.68 133.588C260.752 131.739 265.828 130.276 270.906 129.183L270.696 128.206C265.572 129.309 260.452 130.784 255.337 132.649L255.68 133.588ZM286.796 126.947C292.08 126.589 297.368 126.609 302.661 126.987L302.732 125.99C297.395 125.609 292.06 125.588 286.728 125.949L286.796 126.947ZM318.385 129.141C323.63 130.196 328.88 131.582 334.133 133.28L334.441 132.328C329.154 130.62 323.867 129.223 318.582 128.16L318.385 129.141ZM348.815 138.817C353.651 140.897 358.49 143.225 363.332 145.786L363.799 144.902C358.936 142.329 354.073 139.99 349.21 137.899L348.815 138.817ZM377.462 153.905C381.831 156.611 386.202 159.495 390.575 162.545L391.147 161.725C386.761 158.665 382.374 155.771 377.988 153.055L377.462 153.905ZM403.695 172.184C407.902 175.427 412.109 178.813 416.317 182.333L416.958 181.566C412.741 178.038 408.523 174.643 404.305 171.392L403.695 172.184ZM428.259 192.674C432.24 196.236 436.222 199.908 440.203 203.683L440.891 202.958C436.903 199.176 432.915 195.497 428.926 191.929L428.259 192.674ZM451.898 215.061C455.588 218.741 459.279 222.501 462.969 226.336L463.689 225.643C459.995 221.803 456.3 218.038 452.604 214.353L451.898 215.061ZM474.037 238.058C477.726 242.035 481.415 246.081 485.102 250.187L485.846 249.519C482.155 245.409 478.463 241.36 474.77 237.378L474.037 238.058ZM495.637 262.081C499.129 266.075 502.619 270.118 506.108 274.204L506.869 273.555C503.377 269.466 499.884 265.42 496.39 261.423L495.637 262.081ZM516.573 286.587C520.024 290.711 523.474 294.871 526.923 299.063L527.695 298.428C524.245 294.234 520.793 290.071 517.34 285.945L516.573 286.587ZM537.036 311.445C540.406 315.599 543.774 319.777 547.141 323.975L547.921 323.35C544.553 319.15 541.183 314.97 537.812 310.815L537.036 311.445ZM557.238 336.623C560.578 340.824 563.915 345.039 567.251 349.263L568.036 348.643C564.699 344.418 561.361 340.202 558.021 336.001L557.238 336.623ZM577.21 361.9C580.528 366.119 583.844 370.341 587.159 374.563L587.945 373.945C584.631 369.724 581.314 365.501 577.996 361.282L577.21 361.9ZM597.097 387.22C600.434 391.468 603.769 395.71 607.102 399.941L607.887 399.323C604.555 395.092 601.22 390.85 597.883 386.602L597.097 387.22ZM617.105 412.609C620.437 416.817 623.766 421.008 627.094 425.179L627.876 424.555C624.549 420.386 621.22 416.195 617.888 411.988L617.105 412.609ZM637.125 437.689C640.55 441.938 643.972 446.158 647.391 450.344L648.166 449.712C644.748 445.527 641.327 441.309 637.904 437.062L637.125 437.689ZM657.641 462.796C661.055 466.909 664.466 470.983 667.874 475.011L668.637 474.365C665.231 470.339 661.822 466.268 658.41 462.157L657.641 462.796ZM678.411 487.328C681.995 491.469 685.577 495.553 689.154 499.574L689.901 498.91C686.327 494.892 682.749 490.811 679.167 486.674L678.411 487.328ZM699.876 511.443C703.496 515.385 707.111 519.255 710.723 523.047L711.447 522.358C707.84 518.57 704.228 514.704 700.613 510.766L699.876 511.443ZM722.235 534.875C726.068 538.724 729.897 542.475 733.721 546.122L734.411 545.398C730.594 541.758 726.771 538.012 722.944 534.169L722.235 534.875ZM745.19 556.749C749.398 560.531 753.599 564.174 757.795 567.669L758.435 566.901C754.25 563.415 750.057 559.779 745.858 556.005L745.19 556.749ZM770.364 577.695C774.62 580.936 778.87 584.011 783.112 586.909L783.676 586.083C779.449 583.196 775.213 580.131 770.97 576.899L770.364 577.695ZM797.128 595.835C801.792 598.585 806.448 601.103 811.095 603.373L811.534 602.475C806.912 600.216 802.279 597.711 797.636 594.974L797.128 595.835ZM825.962 609.785C831.132 611.711 836.292 613.307 841.441 614.551L841.676 613.579C836.569 612.345 831.447 610.761 826.311 608.848L825.962 609.785ZM857.106 617.231C862.517 617.765 867.914 617.881 873.296 617.554L873.235 616.556C867.908 616.88 862.564 616.765 857.204 616.236L857.106 617.231ZM889.269 615.244C894.29 614.087 899.296 612.517 904.286 610.514L903.913 609.586C898.97 611.57 894.014 613.125 889.044 614.27L889.269 615.244ZM919.206 603.182C923.501 600.677 927.783 597.831 932.052 594.631L931.452 593.831C927.212 597.009 922.962 599.833 918.703 602.318L919.206 603.182ZM944.38 584.358C948.431 580.639 952.469 576.585 956.495 572.185L955.757 571.51C951.75 575.89 947.732 579.923 943.704 583.622L944.38 584.358ZM966.172 560.906C969.39 556.919 972.6 552.702 975.802 548.25L974.99 547.666C971.799 552.104 968.6 556.306 965.394 560.278L966.172 560.906ZM985.384 534.18C988.186 529.844 990.982 525.322 993.771 520.608L992.911 520.098C990.128 524.802 987.339 529.313 984.544 533.637L985.384 534.18ZM1001.28 507.422C1003.78 502.87 1006.27 498.16 1008.76 493.29L1007.87 492.835C1005.39 497.697 1002.9 502.398 1000.41 506.941L1001.28 507.422ZM1016.21 478.192C1018.6 473.179 1020.99 468.013 1023.37 462.692L1022.46 462.283C1020.08 467.597 1017.7 472.756 1015.31 477.762L1016.21 478.192ZM1029.31 449.083C1031.28 444.438 1033.25 439.685 1035.22 434.82L1034.29 434.445C1032.33 439.304 1030.36 444.053 1028.39 448.692L1029.31 449.083ZM1041.11 419.891C1043.07 414.803 1045.03 409.603 1046.99 404.289L1046.05 403.944C1044.1 409.253 1042.14 414.449 1040.18 419.532L1041.11 419.891ZM1052.84 388.002C1054.54 383.162 1056.24 378.234 1057.93 373.217L1056.98 372.897C1055.29 377.91 1053.59 382.835 1051.89 387.671L1052.84 388.002ZM1062.69 358.869C1064.27 354.007 1065.85 349.066 1067.43 344.046L1066.48 343.746C1064.9 348.763 1063.32 353.701 1061.74 358.559L1062.69 358.869ZM1072.16 328.742C1073.74 323.56 1075.31 318.297 1076.88 312.952L1075.92 312.67C1074.35 318.012 1072.78 323.272 1071.21 328.451L1072.16 328.742ZM1081.58 296.671C1083.14 291.168 1084.7 285.582 1086.26 279.912L1085.3 279.647C1083.74 285.314 1082.18 290.897 1080.62 296.398L1081.58 296.671ZM1090.16 265.544C1091.45 260.696 1092.75 255.789 1094.04 250.823L1093.07 250.571C1091.78 255.535 1090.49 260.439 1089.19 265.285L1090.16 265.544ZM1097.92 235.748C1099.21 230.664 1100.49 225.52 1101.78 220.316L1100.81 220.076C1099.52 225.278 1098.24 230.42 1096.95 235.503L1097.92 235.748ZM1105.63 204.523C1106.92 199.198 1108.2 193.813 1109.48 188.366L1108.5 188.137C1107.22 193.582 1105.94 198.966 1104.66 204.289L1105.63 204.523ZM1113.31 171.842C1114.58 166.273 1115.86 160.642 1117.13 154.949L1116.15 154.731C1114.88 160.422 1113.61 166.051 1112.33 171.619L1113.31 171.842ZM1120.37 140.287C1121.45 135.374 1122.52 130.416 1123.59 125.413L1122.61 125.204C1121.54 130.205 1120.47 135.161 1119.39 140.073L1120.37 140.287ZM1126.8 110.269C1127.87 105.175 1128.94 100.036 1130.01 94.8513L1129.03 94.6497C1127.96 99.8333 1126.89 104.971 1125.83 110.063L1126.8 110.269ZM1133.21 79.1587C1134.27 73.882 1135.33 68.559 1136.39 63.1897L1135.41 62.9957C1134.35 68.3639 1133.29 73.6855 1132.23 78.961L1133.21 79.1587ZM1139.58 46.9418C1140.63 41.4792 1141.69 35.9698 1142.75 30.4134L1141.77 30.2266C1140.71 35.7819 1139.65 41.29 1138.59 46.7515L1139.58 46.9418ZM1145.91 13.6027C1146.44 10.7773 1146.97 7.93996 1147.49 5.09079L1146.51 4.90921C1145.98 7.75782 1145.46 10.5946 1144.93 13.4194L1145.91 13.6027Z" fill="#E4E4E4"/>
</g>
<defs>
<filter id="filter0_f_14_186" x="0.333313" y="0.499939" width="1153.72" height="637.167" filterUnits="userSpaceOnUse" color-interpolation-filters="sRGB">
<feFlood flood-opacity="0" result="BackgroundImageFix"/>
<feBlend mode="normal" in="SourceGraphic" in2="BackgroundImageFix" result="shape"/>
<feGaussianBlur stdDeviation="2" result="effect1_foregroundBlur_14_186"/>
</filter>
</defs>
</svg>
