<svg width="20" height="20" viewBox="0 0 20 20" fill="none" xmlns="http://www.w3.org/2000/svg">
<path d="M10 2.62427C8.50274 2.62427 7.03909 3.06826 5.79416 3.9001C4.54923 4.73193 3.57893 5.91425 3.00595 7.29755C2.43297 8.68084 2.28305 10.203 2.57515 11.6715C2.86725 13.14 3.58826 14.4889 4.64698 15.5476C5.70571 16.6063 7.05461 17.3273 8.52311 17.6194C9.99161 17.9115 11.5137 17.7616 12.897 17.1886C14.2803 16.6157 15.4627 15.6454 16.2945 14.4004C17.1263 13.1555 17.5703 11.6918 17.5703 10.1946C17.568 8.18753 16.7696 6.26336 15.3504 4.84416C13.9312 3.42497 12.0071 2.62662 10 2.62427ZM10 16.8743C8.67889 16.8743 7.38744 16.4825 6.28897 15.7485C5.1905 15.0146 4.33435 13.9713 3.82878 12.7508C3.32321 11.5302 3.19093 10.1872 3.44866 8.89144C3.7064 7.59571 4.34258 6.4055 5.27675 5.47133C6.21092 4.53716 7.40113 3.90098 8.69686 3.64324C9.99259 3.3855 11.3357 3.51778 12.5562 4.02335C13.7768 4.52892 14.82 5.38508 15.554 6.48354C16.2879 7.58201 16.6797 8.87346 16.6797 10.1946C16.6777 11.9655 15.9733 13.6634 14.7211 14.9157C13.4688 16.1679 11.771 16.8723 10 16.8743ZM12.0959 9.87989C12.1793 9.96339 12.2262 10.0766 12.2262 10.1946C12.2262 10.3126 12.1793 10.4258 12.0959 10.5093L9.12719 13.478C9.04277 13.5567 8.93112 13.5995 8.81576 13.5975C8.70039 13.5954 8.59032 13.5487 8.50873 13.4671C8.42714 13.3855 8.3804 13.2754 8.37837 13.1601C8.37633 13.0447 8.41916 12.9331 8.49782 12.8486L11.1511 10.1946L8.49782 7.54052C8.41916 7.4561 8.37633 7.34445 8.37837 7.22908C8.3804 7.11372 8.42714 7.00364 8.50873 6.92205C8.59032 6.84047 8.70039 6.79373 8.81576 6.79169C8.93112 6.78966 9.04277 6.83248 9.12719 6.91114L12.0959 9.87989Z" fill="#080C08"/>
</svg>
