<svg width="50" height="53" viewBox="0 0 50 53" fill="none" xmlns="http://www.w3.org/2000/svg">
<path d="M45.8152 0.507445C45.5431 0.289113 45.1456 0.332645 44.9273 0.604676C44.709 0.876707 44.7525 1.27422 45.0245 1.49256L45.8152 0.507445ZM0.431328 48.7252C0.279571 49.0393 0.41115 49.4169 0.725219 49.5687L5.84326 52.0417C6.15733 52.1935 6.53496 52.0619 6.68672 51.7478C6.83847 51.4337 6.70689 51.0561 6.39283 50.9044L1.84345 48.7061L4.0417 44.1567C4.19346 43.8427 4.06188 43.465 3.74781 43.3133C3.43374 43.1615 3.05611 43.2931 2.90436 43.6072L0.431328 48.7252ZM45.0245 1.49256C47.5744 3.53909 48.69 6.51457 48.2888 10.1176C47.8848 13.7463 45.9362 18.0111 42.3269 22.5045C35.1128 31.4857 21.3812 41.2296 0.792188 48.4036L1.20781 49.5964C21.9461 42.3704 35.9067 32.5143 43.3117 23.2955C47.012 18.6889 49.1048 14.2037 49.5442 10.2574C49.9864 6.28543 48.7475 2.86091 45.8152 0.507445L45.0245 1.49256Z" fill="#D7E872"/>
</svg>
