<svg width="17" height="17" viewBox="0 0 17 17" fill="none" xmlns="http://www.w3.org/2000/svg">
<path d="M8.5 0.929688C7.00274 0.929687 5.53909 1.37368 4.29416 2.20552C3.04923 3.03735 2.07893 4.21967 1.50595 5.60297C0.932967 6.98626 0.78305 8.5084 1.07515 9.9769C1.36725 11.4454 2.08826 12.7943 3.14698 13.853C4.20571 14.9117 5.55461 15.6327 7.02311 15.9249C8.49161 16.217 10.0137 16.067 11.397 15.4941C12.7803 14.9211 13.9627 13.9508 14.7945 12.7058C15.6263 11.4609 16.0703 9.99727 16.0703 8.5C16.068 6.49295 15.2696 4.56878 13.8504 3.14958C12.4312 1.73039 10.5071 0.932045 8.5 0.929688ZM8.5 15.1797C7.17889 15.1797 5.88744 14.7879 4.78897 14.054C3.6905 13.32 2.83435 12.2768 2.32878 11.0562C1.82321 9.83565 1.69093 8.49259 1.94866 7.19686C2.2064 5.90112 2.84258 4.71092 3.77675 3.77675C4.71092 2.84258 5.90113 2.2064 7.19686 1.94866C8.49259 1.69092 9.83566 1.8232 11.0562 2.32877C12.2768 2.83434 13.32 3.6905 14.054 4.78896C14.7879 5.88743 15.1797 7.17888 15.1797 8.5C15.1777 10.271 14.4733 11.9688 13.2211 13.2211C11.9688 14.4733 10.271 15.1777 8.5 15.1797ZM10.5959 8.18531C10.6793 8.26881 10.7262 8.38199 10.7262 8.5C10.7262 8.61801 10.6793 8.73119 10.5959 8.81469L7.62719 11.7834C7.54277 11.8621 7.43112 11.9049 7.31576 11.9029C7.20039 11.9008 7.09032 11.8541 7.00873 11.7725C6.92714 11.6909 6.8804 11.5809 6.87837 11.4655C6.87633 11.3501 6.91916 11.2385 6.99782 11.1541L9.65114 8.5L6.99782 5.84594C6.91916 5.76152 6.87633 5.64987 6.87837 5.5345C6.8804 5.41914 6.92714 5.30906 7.00873 5.22747C7.09032 5.14589 7.20039 5.09915 7.31576 5.09711C7.43112 5.09508 7.54277 5.1379 7.62719 5.21656L10.5959 8.18531Z" fill="#D7E872"/>
</svg>
