<svg width="50" height="41" viewBox="0 0 50 41" fill="none" xmlns="http://www.w3.org/2000/svg">
<path d="M31.6186 0.75H31.3686V1V18.9951V19.2451H31.6186H39.7148C39.6404 22.6361 38.8665 25.3364 37.4152 27.3669L37.4133 27.3696C35.9692 29.4461 33.548 31.0861 30.1143 32.2711L29.8547 32.3607L29.9682 32.6107L33.3703 40.1034L33.4667 40.3156L33.6852 40.2343C37.3836 38.8576 40.4466 36.9612 42.8675 34.5413L42.8675 34.5413C45.3267 32.0816 46.9999 29.3351 47.8789 26.3025C48.7961 23.2801 49.25 19.1541 49.25 13.936V1V0.75H49H31.6186ZM2.42268 0.75H2.17268V1V18.9951V19.2451H2.42268H10.5779C10.4651 22.6366 9.69201 25.3382 8.27929 27.3696C6.83568 29.4454 4.39471 31.0855 0.919304 32.2708L0.6584 32.3598L0.772366 32.6107L4.17443 40.1034L4.27046 40.3148L4.48842 40.2346C8.22801 38.858 11.3121 36.9617 13.7334 34.5413L13.7335 34.5413C16.1931 32.0812 17.8664 29.3343 18.7453 26.3011C19.6207 23.2799 20.0541 19.1545 20.0541 13.936V1V0.75H19.8041H2.42268Z" fill="url(#paint0_linear_6_172)" stroke="#A2A4A2" stroke-width="0.5"/>
<defs>
<linearGradient id="paint0_linear_6_172" x1="1" y1="20.5" x2="49" y2="20.5" gradientUnits="userSpaceOnUse">
<stop stop-color="#111511"/>
<stop offset="1" stop-color="#1E221E"/>
</linearGradient>
</defs>
</svg>
