<svg width="56" height="56" viewBox="0 0 56 56" fill="none" xmlns="http://www.w3.org/2000/svg">
<circle cx="28" cy="28" r="28" fill="url(#paint0_linear_1_215)"/>
<path d="M24.2387 37.2013C24.165 37.27 24.1059 37.3528 24.0649 37.4448C24.024 37.5368 24.0019 37.6361 24.0001 37.7368C23.9984 37.8375 24.0169 37.9375 24.0546 38.0309C24.0923 38.1243 24.1485 38.2091 24.2197 38.2803C24.2909 38.3515 24.3757 38.4077 24.4691 38.4454C24.5625 38.4831 24.6625 38.5017 24.7632 38.4999C24.864 38.4981 24.9633 38.4761 25.0553 38.4351C25.1473 38.3941 25.2301 38.335 25.2987 38.2613L35.2987 28.2613C35.4392 28.1207 35.5181 27.93 35.5181 27.7313C35.5181 27.5325 35.4392 27.3419 35.2987 27.2013L25.2987 17.2013C25.1566 17.0688 24.9685 16.9967 24.7742 17.0001C24.5799 17.0035 24.3945 17.0823 24.2571 17.2197C24.1197 17.3571 24.041 17.5425 24.0376 17.7368C24.0341 17.9311 24.1062 18.1191 24.2387 18.2613L33.7075 27.7313L24.2387 37.2013Z" fill="#080C08"/>
<defs>
<linearGradient id="paint0_linear_1_215" x1="0" y1="28" x2="56" y2="28" gradientUnits="userSpaceOnUse">
<stop stop-color="#A3B43E"/>
<stop offset="1" stop-color="#D7E872"/>
</linearGradient>
</defs>
</svg>
