<svg width="56" height="56" viewBox="0 0 56 56" fill="none" xmlns="http://www.w3.org/2000/svg">
<path d="M56 28C56 43.464 43.464 56 28 56C12.536 56 0 43.464 0 28C0 12.536 12.536 0 28 0C43.464 0 56 12.536 56 28Z" fill="url(#paint0_linear_1_212)"/>
<path d="M31.2793 37.4701C31.353 37.5388 31.4121 37.6216 31.4531 37.7136C31.4941 37.8056 31.5162 37.9049 31.5179 38.0056C31.5197 38.1063 31.5012 38.2063 31.4635 38.2997C31.4257 38.3931 31.3696 38.4779 31.2984 38.5491C31.2272 38.6203 31.1423 38.6765 31.0489 38.7142C30.9555 38.7519 30.8555 38.7705 30.7548 38.7687C30.6541 38.7669 30.5548 38.7449 30.4628 38.7039C30.3708 38.6629 30.288 38.6038 30.2193 38.5301L20.2193 28.5301C20.0789 28.3895 20 28.1988 20 28.0001C20 27.8013 20.0789 27.6107 20.2193 27.4701L30.2193 17.4701C30.3615 17.3376 30.5496 17.2655 30.7439 17.2689C30.9382 17.2723 31.1235 17.3511 31.261 17.4885C31.3984 17.6259 31.4771 17.8113 31.4805 18.0056C31.4839 18.1999 31.4118 18.3879 31.2793 18.5301L21.8106 28.0001L31.2793 37.4701Z" fill="#080C08"/>
<defs>
<linearGradient id="paint0_linear_1_212" x1="0" y1="28" x2="56" y2="28" gradientUnits="userSpaceOnUse">
<stop stop-color="#A3B43E"/>
<stop offset="1" stop-color="#D7E872"/>
</linearGradient>
</defs>
</svg>
