<svg width="12" height="13" viewBox="0 0 12 13" fill="none" xmlns="http://www.w3.org/2000/svg">
<path d="M8.60236 4.5334C8.66845 4.59958 8.70558 4.68929 8.70558 4.78282C8.70558 4.87635 8.66845 4.96605 8.60236 5.03223L5.30824 8.32635C5.24206 8.39244 5.15236 8.42957 5.05883 8.42957C4.9653 8.42957 4.87559 8.39244 4.80942 8.32635L3.39765 6.91458C3.33531 6.84768 3.30137 6.75918 3.30298 6.66775C3.30459 6.57631 3.34163 6.48907 3.4063 6.42441C3.47096 6.35974 3.5582 6.3227 3.64964 6.32109C3.74108 6.31947 3.82957 6.35341 3.89647 6.41576L5.05883 7.57752L8.10353 4.5334C8.16971 4.46731 8.25942 4.43019 8.35295 4.43019C8.44648 4.43019 8.53618 4.46731 8.60236 4.5334ZM12 6.19458C12 7.38127 11.6481 8.54131 10.9888 9.528C10.3295 10.5147 9.39246 11.2837 8.29611 11.7379C7.19975 12.192 5.99335 12.3108 4.82946 12.0793C3.66558 11.8478 2.59648 11.2763 1.75736 10.4372C0.918247 9.59811 0.346802 8.52901 0.115291 7.36512C-0.11622 6.20124 0.0025996 4.99484 0.456726 3.89848C0.910851 2.80212 1.67989 1.86505 2.66658 1.20576C3.65328 0.546474 4.81332 0.19458 6 0.19458C7.59073 0.196448 9.11577 0.82919 10.2406 1.954C11.3654 3.07882 11.9981 4.60386 12 6.19458ZM11.2941 6.19458C11.2941 5.1475 10.9836 4.12394 10.4019 3.25333C9.82018 2.38271 8.99335 1.70415 8.02598 1.30345C7.0586 0.902754 5.99413 0.797913 4.96717 1.00219C3.94021 1.20646 2.99689 1.71068 2.2565 2.45107C1.5161 3.19147 1.01188 4.13479 0.80761 5.16175C0.603335 6.18871 0.708177 7.25318 1.10888 8.22055C1.50958 9.18793 2.18814 10.0148 3.05875 10.5965C3.92936 11.1782 4.95293 11.4887 6 11.4887C7.40361 11.4871 8.74929 10.9289 9.74179 9.93637C10.7343 8.94387 11.2926 7.59819 11.2941 6.19458Z" fill="#D7E872"/>
</svg>
