<svg width="45" height="31" viewBox="0 0 45 31" fill="none" xmlns="http://www.w3.org/2000/svg">
<path d="M19.7534 20.6269V14.1398C19.7534 13.856 19.8093 13.575 19.918 13.3128C20.0266 13.0506 20.1858 12.8124 20.3865 12.6117C20.5872 12.4111 20.8255 12.252 21.0877 12.1434C21.3499 12.0349 21.6309 11.979 21.9147 11.9791H23.828C24.3996 11.9803 24.9473 12.2082 25.3511 12.6128C25.7549 13.0174 25.9816 13.5657 25.9816 14.1372V15.518C25.9816 16.0912 25.7539 16.6409 25.3486 17.0462C24.9433 17.4516 24.3935 17.6793 23.8203 17.6793H21.1144" stroke="white" stroke-width="0.471796" stroke-linecap="round" stroke-linejoin="round"/>
<path d="M26.5186 11.9779H27.3476C27.5829 11.9779 27.8085 12.0714 27.9749 12.2377C28.1413 12.4041 28.2347 12.6297 28.2347 12.865V17.7118" stroke="white" stroke-width="0.471796" stroke-linecap="round" stroke-linejoin="round"/>
<path d="M28.0554 11.2273L27.6791 10.8504C27.6569 10.8281 27.6392 10.8017 27.6272 10.7727C27.6151 10.7436 27.6089 10.7125 27.6089 10.681C27.6089 10.6496 27.6151 10.6184 27.6272 10.5894C27.6392 10.5603 27.6569 10.5339 27.6791 10.5117L28.0554 10.1354C28.0776 10.1132 28.104 10.0955 28.1331 10.0834C28.1621 10.0714 28.1933 10.0652 28.2247 10.0652C28.2562 10.0652 28.2873 10.0714 28.3164 10.0834C28.3454 10.0955 28.3718 10.1132 28.3941 10.1354L28.771 10.5117C28.7932 10.5339 28.8109 10.5603 28.823 10.5894C28.835 10.6184 28.8412 10.6496 28.8412 10.681C28.8412 10.7125 28.835 10.7436 28.823 10.7727C28.8109 10.8017 28.7932 10.8281 28.771 10.8504L28.3941 11.2273C28.3718 11.2495 28.3454 11.2672 28.3164 11.2793C28.2873 11.2913 28.2562 11.2975 28.2247 11.2975C28.1933 11.2975 28.1621 11.2913 28.1331 11.2793C28.104 11.2672 28.0776 11.2495 28.0554 11.2273Z" fill="white"/>
<path d="M29.8303 11.974H30.6543C31.0781 11.9741 31.4846 12.1424 31.7844 12.4421L33.7116 14.3687C33.7709 14.4282 33.8413 14.4754 33.9188 14.5076C33.9964 14.5398 34.0795 14.5564 34.1635 14.5564C34.2474 14.5564 34.3306 14.5398 34.4081 14.5076C34.4856 14.4754 34.556 14.4282 34.6153 14.3687L36.5375 12.4491C36.6858 12.3007 36.862 12.1829 37.0559 12.1026C37.2498 12.0223 37.4577 11.981 37.6675 11.981H38.3372" stroke="white" stroke-width="0.471796" stroke-linecap="round" stroke-linejoin="round"/>
<path d="M29.8303 17.6684H30.6543C31.0781 17.6684 31.4846 17.5 31.7844 17.2003L33.7116 15.2744C33.7709 15.2149 33.8413 15.1677 33.9188 15.1355C33.9964 15.1032 34.0795 15.0867 34.1635 15.0867C34.2474 15.0867 34.3306 15.1032 34.4081 15.1355C34.4856 15.1677 34.556 15.2149 34.6153 15.2744L36.5375 17.1933C36.6858 17.3418 36.862 17.4595 37.0559 17.5398C37.2498 17.6201 37.4577 17.6615 37.6675 17.6614H38.3372" stroke="white" stroke-width="0.471796" stroke-linecap="round" stroke-linejoin="round"/>
<path d="M14.8414 18.8992C14.6379 18.8999 14.4364 18.8601 14.2484 18.7823C14.0605 18.7044 13.8898 18.5901 13.7464 18.4458L12.1654 16.8687C12.1096 16.8151 12.0352 16.7852 11.9578 16.7852C11.8804 16.7852 11.8061 16.8151 11.7502 16.8687L10.1635 18.4547C10.0201 18.599 9.84945 18.7134 9.66148 18.7912C9.47352 18.869 9.27198 18.9088 9.06854 18.9082H8.75732L10.7592 20.9107C11.0596 21.2108 11.4669 21.3794 11.8915 21.3794C12.3162 21.3794 12.7234 21.2108 13.0238 20.9107L15.0314 18.9024L14.8414 18.8992Z" fill="white"/>
<path d="M9.06873 13.3076C9.27215 13.3071 9.47365 13.3469 9.66159 13.4247C9.84954 13.5026 10.0202 13.6169 10.1637 13.761L11.7504 15.3477C11.8055 15.4027 11.8802 15.4335 11.958 15.4335C12.0358 15.4335 12.1105 15.4027 12.1656 15.3477L13.7466 13.7667C13.8901 13.6226 14.0608 13.5083 14.2487 13.4305C14.4366 13.3527 14.6382 13.3128 14.8416 13.3133H15.0329L13.0253 11.3057C12.8766 11.1569 12.7001 11.0389 12.5058 10.9584C12.3115 10.8779 12.1033 10.8364 11.893 10.8364C11.6827 10.8364 11.4744 10.8779 11.2801 10.9584C11.0858 11.0389 10.9093 11.1569 10.7607 11.3057L8.75879 13.3076H9.06873Z" fill="white"/>
<path d="M16.6928 14.9739L15.4811 13.7622C15.4537 13.7731 15.4245 13.779 15.395 13.7794H14.8433C14.5562 13.7806 14.2811 13.8952 14.078 14.0983L12.4945 15.676C12.4241 15.7465 12.3405 15.8024 12.2485 15.8405C12.1565 15.8786 12.0578 15.8981 11.9582 15.898C11.7569 15.8983 11.5638 15.8187 11.4212 15.6767L9.83451 14.09C9.63146 13.8869 9.35639 13.7723 9.06922 13.7711H8.3913C8.36331 13.7706 8.33564 13.765 8.30967 13.7545L7.09158 14.9726C6.94281 15.1213 6.8248 15.2978 6.74428 15.4921C6.66376 15.6864 6.62231 15.8946 6.62231 16.1049C6.62231 16.3152 6.66376 16.5235 6.74428 16.7178C6.8248 16.9121 6.94281 17.0886 7.09158 17.2372L8.30967 18.4553C8.33564 18.4449 8.36331 18.4392 8.3913 18.4387H9.06922C9.35635 18.4373 9.63134 18.3228 9.83451 18.1199L11.4212 16.5332C11.5658 16.3952 11.758 16.3182 11.9579 16.3182C12.1577 16.3182 12.3499 16.3952 12.4945 16.5332L14.0755 18.1141C14.2787 18.317 14.5537 18.4316 14.8408 18.433H15.3924C15.422 18.4333 15.4513 18.4394 15.4785 18.4508L16.6902 17.2391C16.9904 16.9387 17.159 16.5315 17.159 16.1068C17.159 15.6822 16.9904 15.2749 16.6902 14.9745" fill="white"/>
<path d="M21.4005 20.0753C21.3001 20.0798 21.2005 20.095 21.1033 20.1206V20.516C21.1777 20.5422 21.256 20.5553 21.3348 20.5549C21.5332 20.5549 21.6269 20.488 21.6269 20.3132C21.6269 20.1493 21.5498 20.0753 21.4005 20.0753ZM21.0364 20.8094V20.0281H21.0912L21.097 20.0619C21.1981 20.0349 21.3017 20.0182 21.4063 20.0122C21.4787 20.0072 21.5505 20.028 21.6091 20.0709C21.6411 20.102 21.6658 20.14 21.6812 20.1819C21.6967 20.2239 21.7025 20.2687 21.6984 20.3132C21.7021 20.3629 21.6923 20.4126 21.6698 20.457C21.6473 20.5014 21.6131 20.5388 21.5708 20.5651C21.4993 20.6004 21.4203 20.6179 21.3406 20.6161C21.2599 20.6157 21.1798 20.6034 21.1027 20.5798V20.8094H21.0364Z" fill="white"/>
<path d="M22.1958 20.0733C21.9975 20.0733 21.9095 20.1371 21.9095 20.3099C21.9095 20.4827 21.9968 20.5548 22.1958 20.5548C22.3948 20.5548 22.4815 20.491 22.4815 20.3188C22.4815 20.1467 22.3941 20.0733 22.1958 20.0733ZM22.4509 20.5548C22.3745 20.602 22.2854 20.6243 22.1958 20.6186C22.1062 20.6239 22.0172 20.6017 21.9407 20.5548C21.905 20.5264 21.877 20.4895 21.8591 20.4476C21.8413 20.4056 21.8343 20.3598 21.8387 20.3144C21.8346 20.2689 21.8417 20.2231 21.8595 20.1811C21.8773 20.139 21.9052 20.102 21.9407 20.0733C22.0171 20.0261 22.1062 20.0038 22.1958 20.0095C22.2854 20.004 22.3745 20.0262 22.4509 20.0733C22.4864 20.1018 22.5143 20.1385 22.5321 20.1804C22.5499 20.2222 22.557 20.2678 22.5529 20.3131C22.5573 20.3587 22.5503 20.4047 22.5325 20.4468C22.5146 20.489 22.4866 20.5261 22.4509 20.5548Z" fill="white"/>
<path d="M23.3891 20.6001L23.1685 20.1256H23.164L22.9465 20.6001H22.8898L22.6538 20.0261H22.7278L22.9236 20.5063H22.928L23.141 20.0261H23.2048L23.4236 20.5063H23.428L23.6194 20.0261H23.6908L23.4555 20.6001H23.3891Z" fill="white"/>
<path d="M24.1124 20.072C23.9287 20.072 23.8669 20.1537 23.8573 20.2716H24.3713C24.3662 20.1409 24.2993 20.072 24.1162 20.072H24.1124ZM24.1162 20.616C24.0318 20.625 23.947 20.6023 23.8784 20.5522C23.8454 20.522 23.8197 20.4848 23.8031 20.4433C23.7866 20.4018 23.7796 20.357 23.7827 20.3124C23.7802 20.2662 23.7886 20.2199 23.807 20.1774C23.8255 20.1349 23.8537 20.0973 23.8892 20.0676C23.9559 20.0259 24.0339 20.0059 24.1124 20.0102C24.1926 20.0052 24.2724 20.0245 24.3414 20.0656C24.4243 20.1211 24.4402 20.2187 24.4402 20.3297H23.8529C23.8529 20.447 23.8937 20.5516 24.1156 20.5516C24.215 20.5492 24.314 20.5381 24.4115 20.5184V20.5784C24.3124 20.5991 24.2117 20.611 24.1105 20.6141" fill="white"/>
<path d="M24.6313 20.6002V20.0262H24.6862L24.6919 20.06C24.7837 20.0299 24.8792 20.0131 24.9757 20.0103H24.984V20.074H24.9681C24.8764 20.076 24.7856 20.0913 24.6983 20.1193V20.5989L24.6313 20.6002Z" fill="white"/>
<path d="M25.3726 20.072C25.1889 20.072 25.1264 20.1537 25.1175 20.2717H25.6321C25.6264 20.1409 25.5594 20.072 25.377 20.072H25.3726ZM25.377 20.616C25.2926 20.6248 25.2079 20.6021 25.1392 20.5523C25.1076 20.5217 25.0832 20.4845 25.0677 20.4434C25.0523 20.4022 25.0462 20.3582 25.0499 20.3144C25.0474 20.2681 25.0557 20.2219 25.0742 20.1794C25.0927 20.1369 25.1208 20.0992 25.1564 20.0695C25.2231 20.0279 25.301 20.0078 25.3796 20.0121C25.4595 20.0072 25.5391 20.0265 25.6079 20.0676C25.6908 20.1231 25.7067 20.2206 25.7067 20.3316H25.12C25.12 20.449 25.1608 20.5535 25.3828 20.5535C25.4822 20.5511 25.5812 20.54 25.6787 20.5204V20.5803C25.5794 20.601 25.4784 20.6129 25.377 20.616Z" fill="white"/>
<path d="M26.4318 20.1116C26.3576 20.0857 26.2795 20.0728 26.2009 20.0734C26.0026 20.0734 25.9082 20.1403 25.9082 20.3144C25.9082 20.4885 25.9854 20.5523 26.1352 20.5523C26.2353 20.5476 26.3347 20.5329 26.4318 20.5083V20.1116ZM26.4445 20.6001L26.4388 20.5657C26.3377 20.5929 26.234 20.6098 26.1295 20.6161C26.0569 20.6216 25.9848 20.6006 25.9267 20.5568C25.8944 20.5258 25.8696 20.4879 25.854 20.4459C25.8384 20.4039 25.8326 20.359 25.8368 20.3144C25.833 20.265 25.8429 20.2154 25.8654 20.1712C25.8879 20.127 25.9221 20.0899 25.9643 20.0638C26.036 20.0277 26.1156 20.0099 26.1958 20.0121C26.276 20.0131 26.3557 20.0253 26.4324 20.0485V19.7864H26.4994V20.6001H26.4445Z" fill="white"/>
<path d="M27.4814 20.0753C27.381 20.0798 27.2814 20.095 27.1842 20.1206V20.5147C27.2584 20.5418 27.3368 20.5554 27.4157 20.5549C27.6141 20.5549 27.7078 20.4879 27.7078 20.3132C27.7078 20.1493 27.6307 20.0753 27.4814 20.0753ZM27.6523 20.5651C27.5808 20.6003 27.5018 20.6178 27.4221 20.6161C27.3353 20.6152 27.2492 20.6005 27.167 20.5727V20.6001H27.1211V19.7864H27.1849V20.0574C27.2841 20.0321 27.3855 20.0163 27.4878 20.0102C27.5602 20.0052 27.632 20.026 27.6906 20.0689C27.7226 20.1001 27.7473 20.138 27.7627 20.1799C27.7782 20.2219 27.7841 20.2667 27.7799 20.3112C27.7837 20.3609 27.7738 20.4106 27.7513 20.455C27.7288 20.4994 27.6946 20.5368 27.6523 20.5631" fill="white"/>
<path d="M27.8642 20.8227V20.759C27.8967 20.759 27.928 20.7647 27.949 20.7647C27.9878 20.7679 28.0265 20.758 28.059 20.7366C28.0915 20.7152 28.1158 20.6836 28.1283 20.6467L28.1499 20.6014L27.8508 20.0275H27.928L28.1831 20.5211H28.1876L28.4312 20.0275H28.5071L28.1882 20.6697C28.1289 20.7864 28.0658 20.8246 27.949 20.8246C27.9208 20.8259 27.8924 20.8253 27.8642 20.8227Z" fill="white"/>
<path d="M29.4306 20.2736H29.208V20.4745H29.4312C29.5843 20.4745 29.6423 20.4573 29.6423 20.3731C29.6423 20.2889 29.5626 20.2736 29.4306 20.2736ZM29.3897 19.9483H29.208V20.1524H29.3904C29.5415 20.1524 29.6015 20.1346 29.6015 20.0491C29.6015 19.9636 29.5256 19.9483 29.3897 19.9483ZM29.7341 20.5459C29.6525 20.5976 29.5536 20.6001 29.3738 20.6001H29.0352V19.824H29.3655C29.5211 19.824 29.6161 19.824 29.6952 19.8737C29.7216 19.8894 29.743 19.9122 29.7571 19.9395C29.7712 19.9668 29.7774 19.9975 29.7749 20.0281C29.7769 20.0663 29.7659 20.1042 29.7437 20.1354C29.7214 20.1667 29.6893 20.1895 29.6525 20.2002V20.2047C29.752 20.227 29.8164 20.278 29.8164 20.3884C29.8188 20.4197 29.8124 20.4511 29.7978 20.4789C29.7833 20.5068 29.7612 20.53 29.7341 20.5459Z" fill="white"/>
<path d="M30.4942 20.3596C30.4304 20.3539 30.3596 20.3507 30.2882 20.3507C30.1715 20.3507 30.1307 20.3743 30.1307 20.4279C30.1307 20.4814 30.1645 20.5044 30.2538 20.5044C30.3349 20.5016 30.4155 20.4902 30.4942 20.4706V20.3596ZM30.528 20.6001L30.5235 20.5656C30.4223 20.5944 30.3181 20.6113 30.213 20.616C30.1524 20.62 30.0921 20.6053 30.0401 20.5739C30.0189 20.5579 30.002 20.5369 29.9909 20.5127C29.9798 20.4886 29.9748 20.4621 29.9764 20.4355C29.9749 20.403 29.9833 20.3708 30.0005 20.3431C30.0177 20.3155 30.0428 20.2937 30.0727 20.2806C30.1413 20.2549 30.2145 20.244 30.2876 20.2487C30.3475 20.2487 30.4279 20.2519 30.4948 20.2563V20.2487C30.4948 20.1594 30.4362 20.1301 30.2748 20.1301C30.2111 20.1301 30.1371 20.1332 30.0644 20.1403V20.0242C30.1447 20.0178 30.2353 20.0133 30.3099 20.0133C30.402 20.0052 30.4945 20.0236 30.5765 20.0663C30.6403 20.1128 30.6543 20.1772 30.6543 20.2627V20.6013L30.528 20.6001Z" fill="white"/>
<path d="M31.4011 20.6002V20.2813C31.4011 20.1773 31.3475 20.1397 31.2525 20.1397C31.1736 20.1431 31.0953 20.1553 31.0191 20.1761V20.5976H30.8616V20.0236H30.9891L30.9949 20.0593C31.0944 20.0305 31.1969 20.0131 31.3003 20.0077C31.3708 20.0022 31.4408 20.0231 31.4968 20.0664C31.52 20.0897 31.5377 20.1178 31.5488 20.1488C31.5598 20.1798 31.5638 20.2128 31.5605 20.2456V20.5957L31.4011 20.6002Z" fill="white"/>
<path d="M32.0096 20.6161C31.9336 20.622 31.858 20.6005 31.7966 20.5555C31.764 20.5247 31.7389 20.4868 31.7232 20.4448C31.7075 20.4028 31.7016 20.3578 31.706 20.3131C31.703 20.2658 31.7121 20.2186 31.7325 20.1758C31.753 20.133 31.784 20.0962 31.8227 20.0689C31.8992 20.026 31.9865 20.0063 32.074 20.0121C32.1378 20.0121 32.2047 20.0166 32.2755 20.023V20.1454C32.2181 20.1403 32.148 20.1352 32.0931 20.1352C31.9413 20.1352 31.8699 20.183 31.8699 20.3144C31.8699 20.4458 31.9235 20.4911 32.0478 20.4911C32.1287 20.4886 32.2092 20.4787 32.2883 20.4617V20.5797C32.1967 20.6007 32.1034 20.6129 32.0096 20.6161Z" fill="white"/>
<path d="M32.7613 20.132C32.6095 20.132 32.5425 20.1799 32.5425 20.31C32.5425 20.4401 32.6063 20.4956 32.7613 20.4956C32.9162 20.4956 32.9775 20.449 32.9775 20.3189C32.9775 20.1888 32.9137 20.132 32.7613 20.132ZM33.0355 20.5555C32.9522 20.6027 32.8567 20.6238 32.7613 20.6161C32.6655 20.6235 32.5696 20.6024 32.4858 20.5555C32.4484 20.5281 32.4188 20.4915 32.3999 20.4493C32.381 20.407 32.3735 20.3605 32.378 20.3144C32.3735 20.2682 32.3811 20.2215 32.3999 20.1791C32.4188 20.1366 32.4484 20.0997 32.4858 20.0721C32.5697 20.0254 32.6655 20.0045 32.7613 20.0122C32.8566 20.0048 32.9519 20.0257 33.0355 20.0721C33.0726 20.0996 33.1019 20.1363 33.1205 20.1786C33.1392 20.2208 33.1466 20.2672 33.142 20.3132C33.1465 20.3593 33.1391 20.4058 33.1204 20.4483C33.1018 20.4907 33.0725 20.5276 33.0355 20.5555Z" fill="white"/>
<path d="M34.0642 20.6161C33.9647 20.6224 33.8661 20.5937 33.7855 20.5351C33.6924 20.4586 33.6643 20.3393 33.6643 20.2111C33.661 20.1474 33.6737 20.0838 33.7012 20.0262C33.7287 19.9686 33.7702 19.9189 33.8219 19.8814C33.9221 19.826 34.0361 19.8005 34.1503 19.8081C34.2364 19.8081 34.3244 19.8138 34.4207 19.8214V19.9611C34.3384 19.9541 34.2364 19.9484 34.1573 19.9484C33.936 19.9484 33.8423 20.0325 33.8423 20.2111C33.8423 20.3897 33.929 20.4751 34.0923 20.4751C34.2088 20.4713 34.3246 20.4557 34.4379 20.4286V20.5676C34.3153 20.5963 34.1901 20.6128 34.0642 20.6167" fill="white"/>
<path d="M34.9074 20.1142C34.7748 20.1142 34.7238 20.1614 34.7161 20.2488H35.0987C35.0943 20.1557 35.0401 20.1142 34.9074 20.1142ZM34.8838 20.6161C34.7981 20.6239 34.7123 20.6013 34.6415 20.5524C34.6091 20.522 34.584 20.4848 34.5681 20.4433C34.5522 20.4019 34.5459 20.3574 34.5496 20.3132C34.5471 20.2674 34.5555 20.2217 34.5742 20.1798C34.5928 20.1379 34.6211 20.101 34.6568 20.0721C34.7322 20.0268 34.8197 20.0059 34.9074 20.0122C34.9939 20.0068 35.0801 20.0268 35.1555 20.0696C35.2473 20.1334 35.255 20.2341 35.2563 20.3521H34.7123C34.7161 20.4395 34.7627 20.4956 34.9234 20.4956C35.0256 20.4934 35.1275 20.4835 35.2282 20.4663V20.5785C35.1146 20.6001 34.9994 20.6127 34.8838 20.6161Z" fill="white"/>
<path d="M35.9667 20.6002V20.2813C35.9667 20.1773 35.9138 20.1397 35.8188 20.1397C35.7399 20.1431 35.6616 20.1553 35.5854 20.1761V20.5976H35.4253V20.0236H35.556L35.5618 20.0593C35.6613 20.0304 35.7638 20.0131 35.8672 20.0077C35.9377 20.0022 36.0077 20.0231 36.0637 20.0664C36.0869 20.0897 36.1046 20.1178 36.1157 20.1488C36.1267 20.1798 36.1307 20.2128 36.1274 20.2456V20.5957L35.9667 20.6002Z" fill="white"/>
<path d="M36.5802 20.6161C36.5448 20.6195 36.5092 20.6138 36.4767 20.5995C36.4442 20.5852 36.4159 20.5628 36.3946 20.5344C36.3629 20.4824 36.3482 20.4218 36.3525 20.361V20.1467H36.2371V20.0281H36.3525L36.3697 19.8546H36.5113V20.0281H36.7364V20.1467H36.5113V20.3304C36.509 20.3674 36.5145 20.4046 36.5272 20.4394C36.5369 20.4579 36.5521 20.473 36.5708 20.4825C36.5894 20.4919 36.6105 20.4954 36.6312 20.4924C36.6695 20.4917 36.7077 20.4879 36.7453 20.4809V20.5957C36.691 20.6076 36.6357 20.6144 36.5802 20.6161Z" fill="white"/>
<path d="M36.8926 20.6002V20.0262H37.0201L37.0259 20.0619C37.1173 20.0311 37.2126 20.0137 37.309 20.0103H37.3294V20.1467C37.3109 20.1467 37.2899 20.1467 37.2739 20.1467C37.1982 20.147 37.1228 20.1569 37.0495 20.1761V20.5989L36.8926 20.6002Z" fill="white"/>
<path d="M37.913 20.3596C37.846 20.3539 37.7778 20.3507 37.7064 20.3507C37.5897 20.3507 37.5488 20.3743 37.5488 20.4279C37.5488 20.4815 37.5833 20.5044 37.6726 20.5044C37.7537 20.5015 37.8342 20.4902 37.913 20.4706V20.3596ZM37.9468 20.6001L37.9404 20.5675C37.8392 20.5962 37.7349 20.6131 37.6298 20.6179C37.5691 20.6219 37.5086 20.6072 37.4564 20.5758C37.4352 20.5597 37.4184 20.5387 37.4073 20.5146C37.3961 20.4905 37.3911 20.464 37.3926 20.4374C37.391 20.404 37.4 20.3709 37.4182 20.3428C37.4363 20.3146 37.4628 20.2929 37.494 20.2806C37.5623 20.2555 37.6351 20.245 37.7076 20.25C37.7676 20.25 37.8486 20.2531 37.9155 20.2576V20.2487C37.9155 20.1594 37.8562 20.1301 37.6955 20.1301C37.6317 20.1301 37.5571 20.1332 37.4844 20.1403V20.0242C37.5654 20.0178 37.656 20.0134 37.7306 20.0134C37.8225 20.0052 37.9148 20.0236 37.9965 20.0663C38.0603 20.1128 38.075 20.1773 38.075 20.2627V20.6013L37.9468 20.6001Z" fill="white"/>
<path d="M38.2778 19.7864H38.4379V20.6001H38.2778V19.7864Z" fill="white"/>
</svg>
