<svg width="33" height="23" viewBox="0 0 33 23" fill="none" xmlns="http://www.w3.org/2000/svg">
<g clip-path="url(#clip0_1_292)">
<path d="M5.50513 5.31494H5.75945V12.0677H5.50513V5.31494ZM6.01377 5.31494H6.2681V12.0677H6.01377V5.31494ZM7.54085 5.31494H7.79517V12.0677H7.54085V5.31494ZM12.4912 5.31494H12.7456V12.0677H12.4912V5.31494ZM14.1462 5.31494H14.4005V12.0677H14.1462V5.31494ZM15.751 5.31494H16.0054V12.0677H15.751V5.31494ZM16.1646 5.31494H16.4189V12.0677H16.1649L16.1646 5.31494ZM16.5788 5.31494H16.8331V12.0677H16.5788V5.31494ZM17.0442 5.31494H17.2986V12.0677H17.0443L17.0442 5.31494ZM17.5096 5.31494H17.7639V12.0677H17.5096V5.31494ZM18.8034 5.31494H19.0578V12.0677H18.8031L18.8034 5.31494ZM22.0113 5.31494H22.2657V12.0677H22.0113V5.31494ZM25.3575 5.31494H25.6117V12.0677H25.3574L25.3575 5.31494ZM26.2728 5.31494H26.5271V12.0677H26.2728V5.31494ZM26.9345 5.31494H27.1888V12.0677H26.9345V5.31494ZM27.3416 5.31494H27.5959V12.0677H27.3416V5.31494ZM9.22037 5.31494H9.4747V12.0677H9.22037V5.31494ZM6.67548 5.31494H7.13346V12.0677H6.67548V5.31494ZM9.69768 5.31494H10.1556V12.0677H9.69768V5.31494ZM11.8198 5.31494H12.2777V12.0677H11.8198V5.31494ZM12.9062 5.31494H13.3641V12.0677H12.9062V5.31494ZM14.6136 5.31494H15.0715V12.0677H14.6136V5.31494ZM19.4813 5.31494H20.1935V12.0677H19.4813V5.31494ZM20.4117 5.31494H20.9711V12.0677H20.411L20.4117 5.31494ZM21.3933 5.31494H21.8512V12.0677H21.3933V5.31494ZM22.6914 5.31494H23.4549V12.0677H22.6914V5.31494ZM24.1865 5.31494H24.9501V12.0677H24.1865V5.31494ZM8.04975 5.31494H8.96553V12.0677H8.04975V5.31494ZM10.4234 5.31494H11.1356V12.0677H10.4234V5.31494Z" fill="white"/>
<path d="M5.83447 18.0633V14.1982H7.28484C7.52721 14.1889 7.76895 14.2287 7.99548 14.3154C8.16912 14.3896 8.31549 14.5158 8.41445 14.6767C8.51254 14.8288 8.56519 15.0058 8.56621 15.1869C8.56622 15.352 8.51962 15.5137 8.43178 15.6535C8.33281 15.8074 8.19193 15.9299 8.0257 16.0065C8.23902 16.0614 8.42858 16.1845 8.56552 16.357C8.69223 16.5254 8.75859 16.7316 8.75393 16.9423C8.75543 17.1173 8.71623 17.2901 8.63943 17.4473C8.57451 17.5882 8.47698 17.7117 8.3549 17.8074C8.22783 17.8986 8.08395 17.9637 7.93158 17.999C7.72727 18.0458 7.51801 18.0676 7.30843 18.0638L5.83447 18.0633ZM6.34643 15.8225H7.18228C7.34551 15.8288 7.50888 15.8138 7.6682 15.7776C7.78481 15.7481 7.8882 15.6804 7.96196 15.5854C8.03064 15.4866 8.06533 15.3681 8.06078 15.2479C8.06314 15.1286 8.0311 15.011 7.96849 14.9094C7.90876 14.8129 7.81589 14.7415 7.70729 14.7085C7.51459 14.6642 7.31679 14.646 7.11924 14.6545H6.34661L6.34643 15.8225ZM6.34643 17.6074H7.30861C7.425 17.6104 7.54145 17.6043 7.65688 17.5891C7.76128 17.5721 7.86151 17.5354 7.95221 17.481C8.03509 17.4275 8.10235 17.353 8.14715 17.2651C8.19948 17.1652 8.22585 17.0538 8.22386 16.9411C8.22746 16.8066 8.18875 16.6744 8.1132 16.5631C8.03861 16.4562 7.93046 16.3774 7.80594 16.339C7.62181 16.2892 7.43123 16.2674 7.24061 16.2743H6.34643V17.6074ZM9.5014 16.1813C9.46896 15.6305 9.65452 15.0891 10.018 14.674C10.1893 14.4941 10.3968 14.3526 10.6268 14.2587C10.8568 14.1649 11.104 14.1209 11.3523 14.1296C11.6913 14.125 12.025 14.2136 12.3172 14.3856C12.6011 14.5535 12.829 14.8017 12.9722 15.0989C13.1264 15.4226 13.2035 15.7776 13.1973 16.1362C13.2038 16.5007 13.1227 16.8614 12.9608 17.188C12.8139 17.4853 12.5792 17.7303 12.2886 17.89C12.0013 18.0484 11.6782 18.1305 11.3501 18.1286C11.0068 18.1343 10.6689 18.0431 10.3749 17.8657C10.0921 17.6942 9.86562 17.4439 9.72325 17.1454C9.57643 16.8452 9.50053 16.5154 9.5014 16.1813ZM10.0289 16.1894C10.007 16.5915 10.1426 16.9864 10.4069 17.2903C10.5261 17.4209 10.672 17.5244 10.8347 17.5938C10.9973 17.6632 11.173 17.6969 11.3498 17.6926C11.5276 17.6971 11.7043 17.6631 11.8678 17.5929C12.0312 17.5227 12.1776 17.418 12.2968 17.286C12.5635 16.9635 12.697 16.5513 12.67 16.1337C12.677 15.851 12.6234 15.57 12.5128 15.3097C12.4153 15.0853 12.2528 14.8951 12.0463 14.7638C11.8399 14.6341 11.6004 14.5668 11.3567 14.57C11.184 14.5674 11.0125 14.599 10.8521 14.663C10.6916 14.7271 10.5455 14.8223 10.422 14.9431C10.276 15.1136 10.1659 15.3118 10.0984 15.5258C10.0308 15.7399 10.0072 15.9654 10.0289 16.1888V16.1894ZM14.036 18.0636V14.1982H14.5474V17.607H16.4508V18.0633L14.036 18.0636ZM17.2704 18.0636V14.1982H20.0653V14.6545H17.7818V15.8386H19.92V16.2921H17.7818V17.6074H20.155V18.0638L17.2704 18.0636ZM22.0448 18.0636V14.6545H20.7708V14.1982H23.8345V14.6545H22.5558V18.0633L22.0448 18.0636ZM24.3061 16.1813C24.2741 15.6304 24.4601 15.0891 24.824 14.6742C24.9953 14.4943 25.2028 14.3528 25.4328 14.259C25.6627 14.1651 25.91 14.1211 26.1582 14.1299C26.4972 14.1253 26.831 14.2138 27.1231 14.3859C27.4071 14.5537 27.635 14.8019 27.7781 15.0991C27.9325 15.4228 28.0095 15.7779 28.0033 16.1364C28.0096 16.501 27.9283 16.8617 27.7663 17.1883C27.6188 17.4861 27.3834 17.7313 27.0919 17.8908C26.8045 18.0491 26.4814 18.1313 26.1534 18.1294C25.8098 18.1351 25.4717 18.0437 25.1777 17.8659C24.8954 17.6943 24.6695 17.4439 24.5276 17.1456C24.3809 16.8454 24.3051 16.5154 24.3061 16.1813ZM24.8337 16.1894C24.8117 16.5915 24.9473 16.9864 25.2116 17.2903C25.3309 17.4209 25.4768 17.5244 25.6394 17.5938C25.8021 17.6632 25.9777 17.6969 26.1545 17.6926C26.3328 17.6976 26.5102 17.664 26.6742 17.5939C26.8383 17.5237 26.9852 17.4189 27.1048 17.2865C27.3715 16.964 27.505 16.5519 27.4779 16.1343C27.4835 15.8512 27.4282 15.5702 27.3159 15.3103C27.2184 15.0858 27.0559 14.8957 26.8494 14.7643C26.6431 14.6348 26.4038 14.5675 26.1602 14.5705C25.9875 14.5679 25.816 14.5995 25.6555 14.6636C25.4951 14.7276 25.3489 14.8228 25.2255 14.9436C25.0797 15.1141 24.9699 15.3122 24.9026 15.5262C24.8353 15.7401 24.8118 15.9655 24.8337 16.1887V16.1894Z" fill="white"/>
</g>
<defs>
<clipPath id="clip0_1_292">
<rect width="22.4985" height="12.8146" fill="white" transform="translate(5.50513 5.31494)"/>
</clipPath>
</defs>
</svg>
