<svg width="55" height="16" viewBox="0 0 55 16" fill="none" xmlns="http://www.w3.org/2000/svg">
<path d="M15.149 12.2871V4.19277C15.1486 4.18333 15.1502 4.17393 15.1535 4.16509C15.1568 4.15625 15.1619 4.14815 15.1683 4.14125C15.1748 4.13436 15.1825 4.1288 15.1911 4.1249C15.1997 4.12101 15.209 4.11884 15.2184 4.11853H16.7774C16.7971 4.11853 16.816 4.12635 16.8299 4.14027C16.8438 4.1542 16.8516 4.17308 16.8516 4.19277V7.1096H16.8756C17.0854 6.8588 17.3505 6.66012 17.6501 6.52922C17.9498 6.39832 18.2757 6.33876 18.6022 6.35524C19.826 6.35524 20.2187 7.1551 20.2187 8.21598V12.2871C20.2187 12.3068 20.2109 12.3257 20.1969 12.3396C20.183 12.3535 20.1641 12.3613 20.1445 12.3613H18.5807C18.561 12.3613 18.5421 12.3535 18.5282 12.3396C18.5143 12.3257 18.5064 12.3068 18.5064 12.2871V8.36685C18.5064 7.90705 18.0275 7.76576 17.7209 7.76576C17.4144 7.76576 16.8516 7.96692 16.8516 8.54167V12.2871C16.8516 12.3068 16.8438 12.3257 16.8299 12.3396C16.816 12.3535 16.7971 12.3613 16.7774 12.3613H15.2232C15.2135 12.3613 15.2038 12.3594 15.1948 12.3557C15.1858 12.3519 15.1776 12.3465 15.1707 12.3396C15.1638 12.3327 15.1583 12.3245 15.1546 12.3155C15.1509 12.3065 15.149 12.2968 15.149 12.2871Z" fill="white"/>
<path d="M27.5588 10.6898V7.90945H26.8404C26.8306 7.90945 26.8209 7.90752 26.8119 7.90379C26.8029 7.90006 26.7948 7.89459 26.7879 7.8877C26.781 7.88081 26.7755 7.87262 26.7718 7.86362C26.768 7.85461 26.7661 7.84496 26.7661 7.83521V6.82462C26.7663 6.80926 26.7712 6.79433 26.7802 6.7819C26.7892 6.76946 26.8019 6.76012 26.8164 6.75517L27.7743 6.47498L28.2844 4.87767C28.2892 4.86713 28.2966 4.85793 28.3057 4.85084C28.3149 4.84375 28.3257 4.83899 28.3371 4.83696H29.1753C29.1848 4.8363 29.1943 4.83761 29.2033 4.8408C29.2123 4.844 29.2205 4.84901 29.2275 4.85552C29.2345 4.86204 29.24 4.86992 29.2438 4.87867C29.2476 4.88743 29.2495 4.89687 29.2495 4.90641V6.48695H30.5067C30.5264 6.48695 30.5453 6.49477 30.5592 6.5087C30.5732 6.52262 30.581 6.5415 30.581 6.56119V7.84C30.581 7.85905 30.5734 7.87732 30.5599 7.8908C30.5465 7.90427 30.5282 7.91184 30.5091 7.91184H29.2495V10.5126C29.2495 10.7832 29.4028 10.9484 29.7787 10.9484H30.4972C30.5073 10.9478 30.5175 10.9492 30.527 10.9526C30.5366 10.9561 30.5454 10.9614 30.5528 10.9684C30.5602 10.9753 30.5661 10.9837 30.5701 10.9931C30.5741 11.0024 30.5762 11.0125 30.5762 11.0226V12.1458C30.5759 12.1608 30.5712 12.1754 30.5627 12.1877C30.5541 12.2 30.5422 12.2096 30.5283 12.2152C30.1524 12.3872 29.7442 12.477 29.3309 12.4787C28.0784 12.4787 27.5636 11.7363 27.5636 10.6898H27.5588Z" fill="white"/>
<path d="M51.8896 10.6898V7.9095H51.1712C51.1515 7.9095 51.1326 7.90168 51.1187 7.88776C51.1047 7.87384 51.0969 7.85495 51.0969 7.83526V6.82467C51.0971 6.80932 51.102 6.79439 51.111 6.78195C51.12 6.76952 51.1327 6.76018 51.1472 6.75522L52.1051 6.47504L52.6152 4.87773C52.6198 4.86299 52.6291 4.85014 52.6416 4.84108C52.6541 4.83203 52.6692 4.82724 52.6847 4.82744H53.5228C53.5323 4.82678 53.5419 4.82809 53.5509 4.83128C53.5599 4.83448 53.5681 4.83949 53.5751 4.846C53.582 4.85252 53.5876 4.8604 53.5914 4.86915C53.5951 4.87791 53.5971 4.88735 53.5971 4.89688V6.47264H54.8543C54.874 6.47264 54.8929 6.48046 54.9068 6.49439C54.9207 6.50831 54.9286 6.52719 54.9286 6.54688V7.82569C54.9286 7.84474 54.921 7.86301 54.9075 7.87649C54.894 7.88996 54.8758 7.89753 54.8567 7.89753H53.5971V10.5078C53.5971 10.7784 53.7503 10.9437 54.1263 10.9437H54.8447C54.8545 10.9437 54.8641 10.9456 54.8731 10.9493C54.8822 10.9531 54.8903 10.9585 54.8972 10.9654C54.9041 10.9723 54.9096 10.9805 54.9133 10.9895C54.9171 10.9985 54.919 11.0082 54.919 11.0179V12.1411C54.9187 12.1561 54.914 12.1706 54.9054 12.183C54.8969 12.1953 54.885 12.2049 54.8711 12.2105C54.4952 12.3824 54.087 12.4722 53.6737 12.4739C52.4045 12.4739 51.8896 11.7316 51.8896 10.685V10.6898Z" fill="white"/>
<path d="M31.613 12.2871V6.53965C31.613 6.51996 31.6209 6.50108 31.6348 6.48716C31.6487 6.47323 31.6676 6.46541 31.6873 6.46541H33.0906C33.1061 6.46522 33.1211 6.47 33.1337 6.47906C33.1462 6.48812 33.1554 6.50097 33.1601 6.5157L33.3229 7.10003H33.3469C33.5536 6.85059 33.8154 6.65261 34.1117 6.5217C34.408 6.39079 34.7307 6.33053 35.0543 6.34567C35.8901 6.34567 36.2924 6.72165 36.5175 7.30358H36.5654C36.7605 6.99442 37.0343 6.74275 37.3588 6.5744C37.6833 6.40606 38.0467 6.32711 38.4118 6.34567C39.6355 6.34567 40.0283 7.14553 40.0283 8.20641V12.2775C40.0283 12.2972 40.0204 12.3161 40.0065 12.33C39.9926 12.3439 39.9737 12.3518 39.954 12.3518H38.395C38.3753 12.3518 38.3565 12.3439 38.3425 12.33C38.3286 12.3161 38.3208 12.2972 38.3208 12.2775V8.38841C38.3208 7.92862 37.8873 7.7514 37.5808 7.7514C37.2264 7.7514 36.6995 7.97651 36.6756 8.49378V12.2871C36.6759 12.2965 36.6744 12.3059 36.671 12.3148C36.6677 12.3236 36.6627 12.3317 36.6562 12.3386C36.6498 12.3455 36.642 12.3511 36.6334 12.355C36.6248 12.3589 36.6156 12.361 36.6061 12.3613H35.0376C35.0185 12.3601 35.0005 12.3519 34.9872 12.3381C34.974 12.3244 34.9663 12.3062 34.9657 12.2871V8.38841C34.9657 7.92862 34.5059 7.7514 34.1706 7.7514C33.9507 7.7494 33.7387 7.83342 33.5799 7.98554C33.4211 8.13766 33.328 8.34583 33.3205 8.56562V12.2871C33.3199 12.3062 33.3123 12.3244 33.299 12.3381C33.2857 12.3519 33.2677 12.3601 33.2487 12.3613H31.6897C31.6701 12.3614 31.6513 12.354 31.6371 12.3406C31.6229 12.3273 31.6143 12.309 31.613 12.2895V12.2871Z" fill="white"/>
<path d="M41.0557 7.76817V6.71208C41.0564 6.69518 41.0626 6.67896 41.0734 6.66597C41.0842 6.65297 41.0991 6.64393 41.1156 6.64024C41.8635 6.47723 42.6253 6.38661 43.3906 6.36963C44.8969 6.36963 45.7854 6.73363 45.7854 8.35968V12.2895C45.7854 12.3092 45.7776 12.3281 45.7636 12.342C45.7497 12.3559 45.7308 12.3637 45.7111 12.3637H44.2264C44.2103 12.3636 44.1947 12.3582 44.1822 12.3482C44.1696 12.3382 44.1607 12.3243 44.1569 12.3087L43.9869 11.7267H44.054C43.6301 12.3158 43.0673 12.4811 42.3776 12.4811C41.2712 12.4811 40.6821 11.6214 40.6821 10.6084C40.6821 9.07811 41.8005 8.77158 42.6363 8.77158H44.0731V8.38842C44.0731 7.90947 43.7139 7.8017 42.3489 7.8017C41.7718 7.8017 41.1515 7.8472 41.1252 7.8472C41.1059 7.84485 41.0882 7.8355 41.0754 7.82092C41.0626 7.80635 41.0556 7.78757 41.0557 7.76817ZM44.0779 9.82528H43.144C42.6482 9.82528 42.3273 10.0145 42.3273 10.5437C42.3273 11.1137 42.7368 11.243 43.1296 11.243C43.2489 11.2494 43.3684 11.2323 43.4811 11.1926C43.5939 11.1529 43.6977 11.0914 43.7866 11.0115C43.8756 10.9317 43.9479 10.8351 43.9996 10.7273C44.0512 10.6195 44.0811 10.5026 44.0875 10.3833C44.0899 10.3506 44.0899 10.3178 44.0875 10.2851V9.80612L44.0779 9.82528Z" fill="white"/>
<path d="M46.7769 12.2872V6.53974C46.7774 6.52961 46.7801 6.51971 46.7847 6.51069C46.7893 6.50167 46.7958 6.49374 46.8037 6.4874C46.8116 6.48107 46.8208 6.47648 46.8306 6.47395C46.8404 6.47141 46.8507 6.47098 46.8607 6.47268H48.2496C48.2669 6.47192 48.2839 6.47764 48.2971 6.48871C48.3104 6.49978 48.3191 6.51542 48.3215 6.53255L48.4867 7.4258H48.5107C48.6842 7.09606 48.9462 6.82122 49.2673 6.63213C49.5883 6.44304 49.9558 6.34719 50.3283 6.35534C50.338 6.35534 50.3477 6.35726 50.3567 6.36099C50.3657 6.36472 50.3739 6.37019 50.3808 6.37708C50.3877 6.38398 50.3932 6.39216 50.3969 6.40117C50.4006 6.41017 50.4025 6.41983 50.4025 6.42958V8.02928C50.4025 8.04897 50.3947 8.06785 50.3808 8.08178C50.3669 8.0957 50.348 8.10352 50.3283 8.10352H49.9308C48.8603 8.10352 48.4939 8.53218 48.4939 9.06143V12.2776C48.4933 12.2967 48.4857 12.3149 48.4724 12.3286C48.4591 12.3424 48.4411 12.3507 48.4221 12.3518H46.8607C46.8411 12.3539 46.8214 12.3483 46.8058 12.3363C46.7902 12.3243 46.7798 12.3067 46.7769 12.2872Z" fill="white"/>
<path d="M20.9324 9.41818C20.9324 7.54547 21.6508 6.35767 23.7343 6.35767C25.8177 6.35767 26.5481 7.55505 26.5481 9.41818C26.5481 11.2813 25.8177 12.4787 23.7343 12.4787C21.6508 12.4787 20.9324 11.3029 20.9324 9.41818ZM22.7716 9.41818C22.7716 10.4312 22.92 11.0514 23.7295 11.0514C24.5389 11.0514 24.7041 10.4312 24.7041 9.41818C24.7041 8.40519 24.5533 7.79453 23.7295 7.79453C22.9057 7.79453 22.7716 8.40519 22.7716 9.41818Z" fill="white"/>
<path d="M10.9196 9.8519C10.9881 8.50482 10.5169 6.30197 9.39734 4.49983C9.36713 4.45351 9.31679 4.47164 9.32686 4.51996C9.40136 4.79381 9.41948 5.29116 8.98455 5.26096C8.21134 5.2086 9.01073 3.55345 7.31329 2.40571C7.31008 2.40223 7.30619 2.39946 7.30186 2.39756C7.29753 2.39566 7.29285 2.39468 7.28812 2.39468C7.28339 2.39468 7.27871 2.39566 7.27438 2.39756C7.27005 2.39946 7.26616 2.40223 7.26295 2.40571C7.25805 2.41206 7.25539 2.41985 7.25539 2.42786C7.25539 2.43588 7.25805 2.44367 7.26295 2.45001C7.37974 2.6715 7.4482 3.36216 7.18039 3.59775C6.96494 3.78702 6.57632 3.73668 6.1877 3.11449C5.92858 2.68579 5.7943 2.19325 5.79999 1.69235C5.80568 1.19145 5.95112 0.702085 6.21992 0.279381C6.25214 0.227028 6.20784 0.206893 6.17159 0.218974C3.83585 0.990172 3.3687 3.74474 2.87135 4.7475C2.7888 4.91664 2.71631 5.00322 2.57334 4.99516C2.14848 4.96697 2.45454 4.05885 2.60153 3.74272C2.60349 3.73824 2.60453 3.73341 2.60457 3.72852C2.60461 3.72363 2.60366 3.71878 2.60178 3.71426C2.5999 3.70975 2.59712 3.70566 2.59362 3.70224C2.59012 3.69883 2.58596 3.69616 2.5814 3.6944C2.57575 3.69059 2.56908 3.68855 2.56227 3.68855C2.55545 3.68855 2.54879 3.69059 2.54314 3.6944C1.17824 5.19473 0.306113 7.07744 0.0442986 9.08875C0.0442986 9.04244 0.0241628 9.25387 0.0120814 9.40891C0.0120019 9.47019 0.00796637 9.53139 0 9.59215L0 9.81163C0.0129322 11.2451 0.588381 12.6161 1.6024 13.6294C2.61641 14.6426 3.98785 15.2171 5.42131 15.229C6.85477 15.2408 8.23554 14.6892 9.26622 13.6929C10.2969 12.6966 10.895 11.3353 10.9317 9.90224C10.9231 9.88687 10.919 9.86946 10.9196 9.8519ZM5.43664 12.391C4.93475 12.3886 4.44486 12.2373 4.02906 11.9562C3.61325 11.6751 3.29025 11.2769 3.10096 10.812C2.91167 10.3472 2.86462 9.83664 2.96577 9.34504C3.06692 8.85344 3.31172 8.40292 3.66915 8.05058C4.02658 7.69823 4.48056 7.45991 4.97356 7.36582C5.46656 7.27172 5.9764 7.32608 6.43848 7.52201C6.90056 7.71795 7.29408 8.04663 7.56918 8.46642C7.84428 8.88621 7.98859 9.37821 7.98381 9.88009C7.97743 10.5503 7.70587 11.1908 7.22852 11.6613C6.75118 12.1319 6.10691 12.3942 5.43664 12.391Z" fill="white"/>
</svg>
