<svg width="38" height="26" viewBox="0 0 38 26" fill="none" xmlns="http://www.w3.org/2000/svg">
<path fill-rule="evenodd" clip-rule="evenodd" d="M12.1974 17.2239H9.95596L8.27512 10.8114C8.19534 10.5164 8.02594 10.2556 7.77677 10.1327C7.15492 9.82387 6.46969 9.57805 5.72217 9.45408V9.2072H9.33302C9.83137 9.2072 10.2051 9.57805 10.2674 10.0088L11.1395 14.6343L13.3799 9.2072H15.5591L12.1974 17.2239ZM16.805 17.2239H14.6881L16.4312 9.2072H18.5481L16.805 17.2239ZM21.2869 11.4281C21.3492 10.9963 21.7229 10.7494 22.159 10.7494C22.8442 10.6875 23.5906 10.8114 24.2136 11.1192L24.5873 9.39319C23.9644 9.14631 23.2792 9.02234 22.6573 9.02234C20.6027 9.02234 19.1077 10.1328 19.1077 11.6739C19.1077 12.8463 20.1667 13.4619 20.9142 13.8328C21.7229 14.2026 22.0344 14.4494 21.9721 14.8192C21.9721 15.3739 21.3492 15.6208 20.7273 15.6208C19.9798 15.6208 19.2323 15.4359 18.5481 15.127L18.1744 16.8541C18.9219 17.1619 19.7306 17.2859 20.4781 17.2859C22.7819 17.3468 24.2136 16.2375 24.2136 14.5724C24.2136 12.4755 21.2869 12.3526 21.2869 11.4281ZM31.6222 17.2239L29.9413 9.2072H28.1359C27.7621 9.2072 27.3884 9.45408 27.2638 9.82387L24.1513 17.2239H26.3305L26.7654 16.0525H29.443L29.6922 17.2239H31.6222ZM28.4474 11.3661L29.0692 14.3875H27.3261L28.4474 11.3661Z" fill="white"/>
</svg>
