<svg width="46" height="47" viewBox="0 0 46 47" fill="none" xmlns="http://www.w3.org/2000/svg">
<circle cx="23" cy="23.4541" r="23" fill="url(#paint0_linear_14_193)"/>
<path d="M28.8675 23.6279C28.9523 23.713 29 23.8284 29 23.9486C29 24.0689 28.9523 24.1843 28.8675 24.2694L22.826 30.3214C22.7411 30.4064 22.6259 30.4541 22.5059 30.4541C22.3858 30.4541 22.2706 30.4064 22.1857 30.3214L16.1442 24.2694C16.0997 24.2278 16.064 24.1777 16.0392 24.1221C16.0145 24.0664 16.0011 24.0063 16.0001 23.9453C15.999 23.8844 16.0102 23.8238 16.033 23.7673C16.0558 23.7108 16.0897 23.6595 16.1327 23.6164C16.1757 23.5733 16.227 23.5393 16.2834 23.5165C16.3398 23.4936 16.4003 23.4824 16.4611 23.4835C16.5219 23.4846 16.5819 23.4979 16.6375 23.5227C16.6931 23.5475 16.7431 23.5833 16.7846 23.6279L22.5059 29.3583L28.2271 23.6279C28.3121 23.5429 28.4272 23.4951 28.5473 23.4951C28.6674 23.4951 28.7825 23.5429 28.8675 23.6279ZM22.1857 24.2694C22.2706 24.3544 22.3858 24.4021 22.5059 24.4021C22.6259 24.4021 22.7411 24.3544 22.826 24.2694L28.8675 18.2174C28.9475 18.1314 28.9911 18.0176 28.989 17.9C28.987 17.7824 28.9394 17.6702 28.8564 17.587C28.7734 17.5039 28.6614 17.4562 28.544 17.4542C28.4266 17.4521 28.313 17.4957 28.2271 17.5759L22.5059 23.3064L16.7846 17.5759C16.6987 17.4957 16.5851 17.4521 16.4677 17.4542C16.3503 17.4562 16.2383 17.5039 16.1553 17.587C16.0723 17.6702 16.0247 17.7824 16.0227 17.9C16.0206 18.0176 16.0642 18.1314 16.1442 18.2174L22.1857 24.2694Z" fill="#080C08"/>
<defs>
<linearGradient id="paint0_linear_14_193" x1="0" y1="23.4541" x2="46" y2="23.4541" gradientUnits="userSpaceOnUse">
<stop stop-color="#A3B43E"/>
<stop offset="1" stop-color="#D7E872"/>
</linearGradient>
</defs>
</svg>
