<svg width="18" height="19" viewBox="0 0 18 19" fill="none" xmlns="http://www.w3.org/2000/svg">
<g clip-path="url(#clip0_6_98)">
<path d="M6.45073 17.375L5.02573 14.975L2.32573 14.375L2.58823 11.6L0.750732 9.5L2.58823 7.4L2.32573 4.625L5.02573 4.025L6.45073 1.625L9.00073 2.7125L11.5507 1.625L12.9757 4.025L15.6757 4.625L15.4132 7.4L17.2507 9.5L15.4132 11.6L15.6757 14.375L12.9757 14.975L11.5507 17.375L9.00073 16.2875L6.45073 17.375ZM8.21323 12.1625L12.4507 7.925L11.4007 6.8375L8.21323 10.025L6.60073 8.45L5.55073 9.5L8.21323 12.1625Z" fill="white"/>
</g>
<defs>
<clipPath id="clip0_6_98">
<rect width="18" height="18" fill="white" transform="translate(0.000732422 0.5)"/>
</clipPath>
</defs>
</svg>
